<svg xmlns="http://www.w3.org/2000/svg" viewBox="0 0 283.46 195.76"><defs><style>.cls-1{fill:#fff;}.cls-2{fill:#17479e;}</style></defs><title>LogoSafe</title><g id="Layer_2" data-name="Layer 2"><g id="通常"><rect class="cls-1" width="283.46" height="195.76"/><path class="cls-2" d="M46.16,142.88a5.94,5.94,0,0,0-4.37-1.78,5.87,5.87,0,0,0-4.35,1.78,6,6,0,0,0-1.78,4.36v14a5.94,5.94,0,0,0,1.78,4.35,5.88,5.88,0,0,0,4.35,1.79,6,6,0,0,0,4.37-1.79,5.89,5.89,0,0,0,1.77-4.35v-14A5.91,5.91,0,0,0,46.16,142.88ZM43.9,161.21a2.19,2.19,0,0,1-2.21,2.21,2.21,2.21,0,0,1-1.58-.64,2.15,2.15,0,0,1-.66-1.57v-14a2.14,2.14,0,0,1,.66-1.56,2.22,2.22,0,0,1,1.58-.65,2.2,2.2,0,0,1,2.21,2.21Z"/><path class="cls-2" d="M61.88,143.09a6,6,0,0,0-4.41-1.67H51.35v25.67h3.88v-9.67h2.24a5.85,5.85,0,0,0,4.31-1.79,6,6,0,0,0,1.75-4.36v-3.72A6.1,6.1,0,0,0,61.88,143.09Zm-2.1,8.27a2.13,2.13,0,0,1-.65,1.57,2.1,2.1,0,0,1-1.57.65H55.23v-8.21h2.33a2.21,2.21,0,0,1,1.62.61,2.3,2.3,0,0,1,.6,1.63Z"/><path class="cls-2" d="M64,141.42v3.88h4.11v21.79H72V145.3h4.1v-3.88Z"/><path class="cls-2" d="M83.64,141.42v3.88h4.12v21.79h3.88V145.3h4.1v-3.88Z"/><path class="cls-2" d="M109,145.27v-3.86H98v25.68h11v-3.87h-7.14v-7h5.22v-3.86h-5.22v-7.06Z"/><path class="cls-2" d="M123.37,150.21v-2.92a5.93,5.93,0,0,0-1.78-4.37,6.15,6.15,0,0,0-10.5,4.37v14a6.14,6.14,0,1,0,12.28,0v-3.6h-4v3.56a2.1,2.1,0,0,1-.66,1.56,2.19,2.19,0,0,1-1.56.65,2.16,2.16,0,0,1-1.57-.65,2.09,2.09,0,0,1-.65-1.56V147.2a2.22,2.22,0,1,1,4.44,0v3Z"/><path class="cls-2" d="M134.67,141.42v10.92H130V141.42h-3.88v25.67H130V156.22h4.68v10.87h3.86V141.42Z"/><path class="cls-2" d="M151.63,141.41v17.26l-5.14-17.26h-4.35v25.68H146V150.64l5.32,16.45h4.15V141.41Z"/><path class="cls-2" d="M169.11,142.88a6.23,6.23,0,0,0-8.72,0,6,6,0,0,0-1.76,4.36v14a6.14,6.14,0,0,0,10.48,4.35,5.9,5.9,0,0,0,1.78-4.35v-14A5.92,5.92,0,0,0,169.11,142.88Zm-2.25,18.33a2.13,2.13,0,0,1-.64,1.57,2.26,2.26,0,0,1-3.15,0,2.11,2.11,0,0,1-.66-1.57v-14a2.1,2.1,0,0,1,.66-1.56,2.23,2.23,0,0,1,3.15,0,2.12,2.12,0,0,1,.64,1.56Z"/><path class="cls-2" d="M177.75,163.22v-21.8h-3.88v25.67h10.56v-3.87Z"/><path class="cls-2" d="M195.79,142.88a6.23,6.23,0,0,0-8.72,0,6,6,0,0,0-1.76,4.36v14a6.14,6.14,0,0,0,10.48,4.35,5.9,5.9,0,0,0,1.78-4.35v-14A5.92,5.92,0,0,0,195.79,142.88Zm-2.25,18.33a2.13,2.13,0,0,1-.64,1.57,2.2,2.2,0,0,1-1.57.64,2.22,2.22,0,0,1-1.58-.64,2.1,2.1,0,0,1-.65-1.57v-14a2.09,2.09,0,0,1,.65-1.56,2.23,2.23,0,0,1,1.58-.65,2.21,2.21,0,0,1,1.57.65,2.12,2.12,0,0,1,.64,1.56Z"/><path class="cls-2" d="M212.75,150.21v-2.92a6.14,6.14,0,1,0-12.28,0v14a6.14,6.14,0,1,0,12.28,0v-9h-6.18v3.86h2.16v5.07a2.14,2.14,0,0,1-.66,1.56,2.23,2.23,0,0,1-3.15,0,2.16,2.16,0,0,1-.64-1.56V147.2a2.21,2.21,0,0,1,.64-1.58,2.24,2.24,0,0,1,3.81,1.58v3Z"/><path class="cls-2" d="M216,141.42v25.67h3.88V141.42Z"/><path class="cls-2" d="M234.06,145.27v-3.86h-11v25.68h11v-3.87h-7.15v-7h5.24v-3.86h-5.24v-7.06Z"/><path class="cls-2" d="M244.72,154.2c-.3-.28-.89-.81-1.8-1.57A16.63,16.63,0,0,1,241.2,151a5.67,5.67,0,0,1-1.51-3.58,3.83,3.83,0,0,1,.45-1.91,1.8,1.8,0,0,1,1.62-.92c1.4,0,2.21,1,2.44,3.09l3.71-.67a7.35,7.35,0,0,0-.87-3,5.6,5.6,0,0,0-5.37-2.92,5.85,5.85,0,0,0-3.62,1.08,6.25,6.25,0,0,0-2.35,5.3,7.67,7.67,0,0,0,1,3.85,13.76,13.76,0,0,0,2.59,3.09c1.68,1.63,2.82,2.71,3.42,3.26a4.39,4.39,0,0,1,1.47,3.18,3.24,3.24,0,0,1-.39,1.7,2.41,2.41,0,0,1-2,1.26,2.23,2.23,0,0,1-2.07-1.39,7.23,7.23,0,0,1-.71-2.57l-3.7.26a10.36,10.36,0,0,0,.84,3.63,6.5,6.5,0,0,0,10.42,1.76,6.89,6.89,0,0,0,1.55-4.82C248.05,158.61,246.93,156.44,244.72,154.2Z"/><path class="cls-2" d="M85.48,66.7a116.7,116.7,0,0,1-.84,11.7,4.18,4.18,0,0,1-4.23,3.95c-1,.08-2.86,0-4,0l1.45-20h4.57C84.54,62.3,85.49,64.1,85.48,66.7Z"/><path class="cls-2" d="M163.24,70.73l-.05-1.58c-.18-7.64-8.54-7.64-8.41,0v1.58l.07,4.49h8.49Zm0,0-.05-1.58c-.18-7.64-8.54-7.64-8.41,0v1.58l.07,4.49h8.49Zm-118-4.46-3.4,31c-.73,6.6,7.31,6.6,8,0,.92-8.75,3.06-30.27,3.14-31C53.52,60,45.88,60,45.19,66.27Zm118.05,4.46-.05-1.58c-.18-7.64-8.54-7.64-8.41,0v1.58l.07,4.49h8.49Zm0,0-.05-1.58c-.18-7.64-8.54-7.64-8.41,0v1.58l.07,4.49h8.49Zm-118-4.46-3.4,31c-.73,6.6,7.31,6.6,8,0,.92-8.75,3.06-30.27,3.14-31C53.52,60,45.88,60,45.19,66.27Zm209.37,42.87a16.4,16.4,0,0,1-2.34-7.32l-3.84-31.4a29.34,29.34,0,0,0-5-13.74c-2.74-3.71-6.2-5.74-9.75-5.74a9.88,9.88,0,0,0-6.41,2.46l-1.54-15.48c-.2-2.18-.24-4.45.7-6.23a2.2,2.2,0,0,0-.16-2.22,2.44,2.44,0,0,0-2-1.12H210.73a2,2,0,0,0-1.81,1.12c0,.14-.09.27-.14.43l-7.29,23.19a19.39,19.39,0,0,0-6.3-1.07,17,17,0,0,0-17.06,13.25h0L177,70.6v-.48A18.9,18.9,0,0,0,171,56.52a17.42,17.42,0,0,0-9.29-4.31c-.86-.12-1.43-.17-1.57-.17l1.15-8.18V43.7a2.7,2.7,0,0,0-.07-.63L157.64,30a2.24,2.24,0,0,0-2.13-1.62H111.79A2.28,2.28,0,0,0,109.64,30l-3.85,13.1a2.22,2.22,0,0,0-.1.67v0a2.28,2.28,0,0,0,.1.6l1.2,7.29H94.67a2.41,2.41,0,0,0-2.25,1.72l-.24.79a14.27,14.27,0,0,0-8.54-2.47c-4.7,0-14.57,0-14.68,0H67.29a2.47,2.47,0,0,0-2.05,1.19,2.39,2.39,0,0,0-.14,2.34c1,1.85,1,4.17.78,6.42l-.36,4.1c.18-9.28-7-14.05-14.59-14.05A18.83,18.83,0,0,0,32.12,68.43c-.62,4-2.26,17.32-3.14,24.65-.21,1.71-.38,3.07-.49,3.87a14.74,14.74,0,0,0,2,10.06h0l.13.16a8.84,8.84,0,0,0,1.05,1.34L44.8,125.3A12.77,12.77,0,0,0,46.35,127a14.58,14.58,0,0,0,10,3.63,17.62,17.62,0,0,0,5.71-.94A16.11,16.11,0,0,0,67,127a17.74,17.74,0,0,0,1.36-1.21l2,3.31a1.86,1.86,0,0,0,1.73,1.21H84.34a2.21,2.21,0,0,0,1.89-1.21,2.55,2.55,0,0,0,.09-2.37c-.94-1.84-1-4.16-.86-6.37l.47-7.68h.25c1.47-.06,3-.11,4.15-.27a14.73,14.73,0,0,0,4.22-1.21,2.67,2.67,0,0,0,.18.57l5.85,17a1.82,1.82,0,0,0,.13.37,2,2,0,0,0,1.76,1.21H115a2.15,2.15,0,0,0,1.86-1.21,2.58,2.58,0,0,0,.06-2.25l-.9-2.62a19.29,19.29,0,0,1-.25-4l.87-32h2.17a7.29,7.29,0,0,1,5.72,2.32l.11.09h0l-.09.07c-.07.06,0,.1.09.14l-.19,11.9a13.31,13.31,0,0,1-1.54,6.41,2.93,2.93,0,0,0-.34,2h0l2.12,17.24a2.45,2.45,0,0,0,.21.72,2,2,0,0,0,1.81,1.21h13.61a2.08,2.08,0,0,0,1.83-1.21,2.69,2.69,0,0,0,.24-1.4l.16-6.11a16.39,16.39,0,0,0,14.9,9.28,15.7,15.7,0,0,0,11-4.31,15.52,15.52,0,0,0,4.3-8l.91-3.47a17.53,17.53,0,0,0,17.66,15.76,17.17,17.17,0,0,0,6.15-1.12,14.75,14.75,0,0,0,5-3.18,14.15,14.15,0,0,0,2.94-4.13l1.27-2.48,0,.27c.13,2.25.13,4.61-.81,6.5a2.53,2.53,0,0,0,.1,2.37,2.26,2.26,0,0,0,1.9,1.21h12.93a1.83,1.83,0,0,0,1.5-.79h0l1.14-1.68a2.74,2.74,0,0,0,.37,1.26,2.3,2.3,0,0,0,1.93,1.21h12.93a1.75,1.75,0,0,0,1.33-.6l0-.06a.21.21,0,0,0,.05-.07l14.47-17.27a2.11,2.11,0,0,0,.31-.55A3,3,0,0,0,254.56,109.14ZM60.66,97c-1.65,18.62-32.1,18.74-29.82,0,.52-4.26,2.8-23.64,3.54-28.47,2.31-19,30.37-19,28.81-1.54C63.07,68.27,61.68,87.7,60.66,97Zm55.05-33.19H111l-1.32,38.07c-.07,2.94.08,6,1.52,8.7H96.87A16.57,16.57,0,0,0,99,103.05l1.65-39.29H98.77a12.47,12.47,0,0,0-3.49.43c.09.79.12,1.39.13,1.7,0,.85,0,1.73,0,2.63A61.3,61.3,0,0,1,94.62,79c-1.14,6.5-5.48,10.8-11.72,11.61-1.94.25-5,.26-7.08.4L75,102c-.18,2.88-.15,5.9,1.16,8.51H62.24A18.27,18.27,0,0,0,64.75,102l3.38-40.43c.19-2.62.19-5.33-1-7.64h1.66s10,0,14.73,0c5.11,0,8,2.06,9.67,4.49L94.55,54H120.7l2.93,12.93A10.47,10.47,0,0,0,115.71,63.76Zm23.11-23.29-.17,61.36c0,2.94.28,6,1.81,8.7H124.94a16.66,16.66,0,0,0,1.92-7.76l.81-62.3H116.34a11.72,11.72,0,0,0-8.44,3.16l3.82-13.12h43.82l3.58,13.12a11.49,11.49,0,0,0-8.39-3.16Zm16.35,54.24c.11,7.56,8.86,7.66,8.68,0a17.94,17.94,0,0,0-1.67-8.1l13.19,1.2c.06,1.72.1,4.34.2,6.73.85,22.52-32.2,22.19-32.25-.46,0-5.12-.14-16.17,0-22.07-.05-23.12,30.55-23.12,31.34-1.89,0,.15,0,.9.09,2,.14,3,.53,6,2.22,8.73H155Zm25.49-.63c-.22-5.12-.81-16.18-.88-22.07-1-23.12,30.44-23.12,32.15-1.89a25.92,25.92,0,0,1-.15,6l-12.05,1.22c1.09-2.49,1-6.48.89-8.19-.52-7.64-9.92-7-9.49.64l1.44,25.34c.45,8,10.22,8,9.93,0-.09-2.1-.79-6.38-2.14-8.52l13.11,1.16s.3,3.09.59,6.77C215.88,117.08,181.66,116.73,180.66,94.08ZM238,110.53c1.24-2.66,1.16-5.76.88-8.7l-3.2-30c-1-9-9.62-7.28-8.77,1.52l2.78,28.47a18.7,18.7,0,0,0,2.66,8.7H217.56c1.3-2.65,1.3-5.73,1.09-8.65-1.38-16.23-4.23-49.7-5.46-64.13a14.55,14.55,0,0,0-2.28-7.24h13.48c-1.19,2.24-1.16,4.86-.95,7.4L225.5,59c7.49-11.91,18.77-4,20.62,11.38l3.73,31.41a19.25,19.25,0,0,0,2.87,8.7ZM163.19,69.15c-.18-7.64-8.54-7.64-8.41,0v1.58l.07,4.49h8.49l-.11-4.49Zm-118-2.88-3.4,31c-.73,6.6,7.31,6.6,8,0,.92-8.75,3.06-30.27,3.14-31C53.52,60,45.88,60,45.19,66.27Zm118.05,4.46-.05-1.58c-.18-7.64-8.54-7.64-8.41,0v1.58l.07,4.49h8.49Zm0,0-.05-1.58c-.18-7.64-8.54-7.64-8.41,0v1.58l.07,4.49h8.49Zm0,0-.05-1.58c-.18-7.64-8.54-7.64-8.41,0v1.58l.07,4.49h8.49Zm0,0-.05-1.58c-.18-7.64-8.54-7.64-8.41,0v1.58l.07,4.49h8.49Z"/></g></g></svg>