<?xml version="1.0" encoding="UTF-8"?>
<!-- Created with Inkscape (http://www.inkscape.org/) -->
<svg width="76.936" height="14.07" version="1.1" viewBox="0 0 76.936 14.07" xml:space="preserve" xmlns="http://www.w3.org/2000/svg" xmlns:cc="http://creativecommons.org/ns#" xmlns:dc="http://purl.org/dc/elements/1.1/" xmlns:rdf="http://www.w3.org/1999/02/22-rdf-syntax-ns#"><metadata><rdf:RDF><cc:Work rdf:about=""><dc:format>image/svg+xml</dc:format><dc:type rdf:resource="http://purl.org/dc/dcmitype/StillImage"/><dc:title/></cc:Work></rdf:RDF></metadata><defs><clipPath id="clipPath22"><path d="m0 560h960v-560h-960z"/></clipPath></defs><g transform="matrix(1.3333 0 0 -1.3333 -525.89 394.79)"><g transform="translate(414.21 294.47)"><path d="m0 0v1.283h7.22v-1.249l-5.725-7.321h6.085v-1.299h-8.012v1.232l5.707 7.354z"/></g><g clip-path="url(#clipPath22)"><g transform="translate(428.39 294.87)"><path d="m0 0c-1.71 0-2.773-1.369-2.953-3.028h5.636c-0.036 1.967-0.81 3.028-2.665 3.028zm0.594-7.919c1.153 0 2.305 0.239 3.133 0.581l0.306-1.248c-0.72-0.325-2.071-0.667-3.565-0.667-3.349 0-5.095 1.881-5.095 5.063 0 3.095 1.692 5.421 4.807 5.421 2.701 0 3.997-1.675 3.997-4.498v-0.889h-7.184c-0.09-2.686 1.441-3.763 3.583-3.763z"/></g><g transform="translate(440.79 295.89)"><path d="m0 0-0.09-1.386c-1.279 0-2.737-0.495-3.295-1.693v-6.927h-1.639v7.252c0 0.975-0.072 1.95-0.252 2.531l1.477 0.206c0.18-0.411 0.324-1.18 0.36-1.642 0.594 1.009 1.999 1.659 3.439 1.659"/></g><g transform="translate(447.26 286.88)"><path d="m0 0c2.106 0 3.187 1.402 3.187 4.003 0 2.565-1.081 3.916-3.205 3.916-2.125 0-3.205-1.351-3.205-3.916 0-2.601 1.08-4.003 3.205-4.003zm4.861 3.968c0-2.599-1.134-5.302-4.879-5.302-3.727 0-4.879 2.703-4.879 5.319 0 2.566 1.152 5.218 4.879 5.218 3.745 0 4.879-2.652 4.879-5.218z"/></g><g transform="translate(398.12 290.07)"><path d="m0 0h-3.709v1.317h3.709v3.539h1.405v-3.539h3.691v-1.317h-3.691v-3.522h-1.405z"/></g></g></g></svg>
