<?xml version="1.0" encoding="UTF-8" standalone="no"?>
<svg
   xmlns:dc="http://purl.org/dc/elements/1.1/"
   xmlns:cc="http://creativecommons.org/ns#"
   xmlns:rdf="http://www.w3.org/1999/02/22-rdf-syntax-ns#"
   xmlns:svg="http://www.w3.org/2000/svg"
   xmlns="http://www.w3.org/2000/svg"
   xmlns:sodipodi="http://sodipodi.sourceforge.net/DTD/sodipodi-0.dtd"
   xmlns:inkscape="http://www.inkscape.org/namespaces/inkscape"
   inkscape:version="1.0 (4035a4fb49, 2020-05-01)"
   sodipodi:docname="P05_recruit_1_RCL_Brandlogo_Color.svg"
   viewBox="0 0 1122.52 793.70667"
   height="793.70667"
   width="1122.52"
   xml:space="preserve"
   id="svg2"
   version="1.1"><metadata
     id="metadata8"><rdf:RDF><cc:Work
         rdf:about=""><dc:format>image/svg+xml</dc:format><dc:type
           rdf:resource="http://purl.org/dc/dcmitype/StillImage" /></cc:Work></rdf:RDF></metadata><defs
     id="defs6"><clipPath
       id="clipPath18"
       clipPathUnits="userSpaceOnUse"><path
         id="path16"
         d="M 0,595.28 H 841.89 V 0 H 0 Z" /></clipPath><clipPath
       id="clipPath26"
       clipPathUnits="userSpaceOnUse"><path
         id="path24"
         d="M 137.481,314.574 H 266.875 V 223.309 H 137.481 Z" /></clipPath><linearGradient
       id="linearGradient368"
       spreadMethod="pad"
       gradientTransform="matrix(108.30113,-50.501648,-50.501648,-108.30112,138.54395,320.28174)"
       gradientUnits="userSpaceOnUse"
       y2="0"
       x2="1"
       y1="0"
       x1="0"><stop
         id="stop356"
         offset="0"
         style="stop-opacity:1;stop-color:#55c3f1" /><stop
         id="stop358"
         offset="0.18424078"
         style="stop-opacity:1;stop-color:#0081cc" /><stop
         id="stop360"
         offset="0.25"
         style="stop-opacity:1;stop-color:#0081cc" /><stop
         id="stop362"
         offset="0.399994"
         style="stop-opacity:1;stop-color:#0068b7" /><stop
         id="stop364"
         offset="0.639999"
         style="stop-opacity:1;stop-color:#005bac" /><stop
         id="stop366"
         offset="1"
         style="stop-opacity:1;stop-color:#004ea2" /></linearGradient><clipPath
       id="clipPath378"
       clipPathUnits="userSpaceOnUse"><path
         id="path376"
         d="M 0,595.28 H 841.89 V 0 H 0 Z" /></clipPath></defs><sodipodi:namedview
     inkscape:current-layer="g10"
     inkscape:window-maximized="1"
     inkscape:window-y="268"
     inkscape:window-x="1272"
     inkscape:cy="396.85333"
     inkscape:cx="561.26001"
     inkscape:zoom="0.61483672"
     showgrid="false"
     inkscape:document-rotation="0"
     id="namedview4"
     inkscape:window-height="971"
     inkscape:window-width="1280"
     inkscape:pageshadow="2"
     inkscape:pageopacity="0"
     guidetolerance="10"
     gridtolerance="10"
     objecttolerance="10"
     borderopacity="1"
     bordercolor="#666666"
     pagecolor="#ffffff" /><g
     transform="matrix(1.3333333,0,0,-1.3333333,0,793.70667)"
     inkscape:label="P05_recruit_1_RCL_Brandlogo_Color"
     inkscape:groupmode="layer"
     id="g10"><g
       transform="matrix(1.483321,0,0,1.483321,-201.84926,-141.93405)"
       id="g12"><g
         clip-path="url(#clipPath18)"
         id="g14"><g
           id="g20"><g
             id="g22" /><g
             id="g342"><g
               id="g340"
               clip-path="url(#clipPath26)"><g
                 id="g30"
                 transform="translate(158.2852,223.3086)"><path
                   id="path28"
                   style="fill:#ffffff;fill-opacity:1;fill-rule:nonzero;stroke:none"
                   d="m 0,0 c -10.994,0 -20.804,3.5 -20.804,11.211 0,2.66 4.513,22.424 20.25,41.404 7.308,8.816 17.677,18.478 31.837,25.937 14.161,7.458 32.113,12.713 54.586,12.713 6.713,0 12.269,-0.47 19.414,-1.398 2.117,-0.277 3.469,-2.387 3.291,-5.129 -0.225,-3.477 -2.998,-6.983 -8.674,-6.983 -22.592,0 -39.723,-5.143 -52.257,-16.042 C 41.376,56.264 36.258,49.376 32.181,40.972 28.104,32.568 25.067,22.649 22.963,11.139 21.457,2.871 6.433,0 0,0" /></g><g
                 id="g34"
                 transform="translate(189.7275,301.8955)"><path
                   id="path32"
                   style="fill:#ffffff;fill-opacity:1;fill-rule:nonzero;stroke:none"
                   d="M 0,0 C 14.144,7.424 32.061,12.647 54.477,12.64 61.17,12.638 66.725,12.169 73.85,11.244 75.952,10.969 77.288,8.84 77.083,6.11 76.98,4.734 76.478,3.356 75.544,2.201 74.136,0.457 71.771,-0.795 68.371,-0.797 45.801,-0.813 28.687,-5.97 16.165,-16.866 9.9,-22.315 4.784,-29.199 0.708,-37.596 c -4.079,-8.4 -7.117,-18.314 -9.222,-29.813 -0.186,-1.019 -0.575,-1.957 -1.126,-2.82 -3.914,-6.124 -16.109,-8.345 -21.79,-8.348 -10.982,-0.003 -20.798,3.499 -20.798,11.201 0,2.647 4.532,22.443 20.307,41.439 C -24.587,-17.104 -14.19,-7.443 0,0" /></g><g
                 id="g38"
                 transform="translate(189.8867,301.9302)"><path
                   id="path36"
                   style="fill:#fefefe;fill-opacity:1;fill-rule:nonzero;stroke:none"
                   d="m 0,0 c 14.126,7.391 32.009,12.583 54.369,12.568 6.673,-0.004 12.225,-0.472 19.33,-1.396 2.088,-0.273 3.409,-2.419 3.177,-5.137 C 76.76,4.669 76.25,3.304 75.305,2.164 73.881,0.443 71.513,-0.793 68.125,-0.798 45.577,-0.829 28.481,-6 15.969,-16.892 9.708,-22.341 4.594,-29.223 0.519,-37.61 c -4.082,-8.399 -7.121,-18.307 -9.227,-29.796 -0.186,-1.017 -0.573,-1.956 -1.118,-2.819 -3.88,-6.134 -16.028,-8.37 -21.752,-8.376 -10.968,-0.008 -20.79,3.497 -20.79,11.19 0,2.635 4.551,22.463 20.363,41.476 C -24.646,-17.086 -14.222,-7.427 0,0" /></g><g
                 id="g42"
                 transform="translate(190.0454,301.9653)"><path
                   id="path40"
                   style="fill:#fdfefe;fill-opacity:1;fill-rule:nonzero;stroke:none"
                   d="M 0,0 C 14.11,7.357 31.958,12.517 54.262,12.495 60.914,12.489 66.464,12.021 73.549,11.1 75.623,10.83 76.928,8.665 76.669,5.959 76.54,4.604 76.023,3.251 75.067,2.126 73.627,0.428 71.255,-0.793 67.879,-0.799 45.354,-0.846 28.275,-6.031 15.773,-16.918 9.515,-22.369 4.404,-29.248 0.331,-37.625 c -4.084,-8.398 -7.125,-18.3 -9.232,-29.777 -0.186,-1.017 -0.57,-1.956 -1.112,-2.82 -3.844,-6.145 -15.947,-8.396 -21.711,-8.404 -10.957,-0.011 -20.784,3.497 -20.784,11.18 0,2.622 4.569,22.484 20.418,41.511 C -24.703,-17.07 -14.251,-7.412 0,0" /></g><g
                 id="g46"
                 transform="translate(190.2046,302)"><path
                   id="path44"
                   style="fill:#fdfdfd;fill-opacity:1;fill-rule:nonzero;stroke:none"
                   d="m 0,0 c 14.093,7.323 31.906,12.452 54.153,12.423 6.633,-0.008 12.18,-0.475 19.245,-1.394 2.059,-0.269 3.35,-2.45 3.064,-5.145 C 76.319,4.54 75.794,3.199 74.829,2.089 73.372,0.414 70.998,-0.792 67.633,-0.799 45.13,-0.862 28.068,-6.062 15.578,-16.945 9.322,-22.396 4.213,-29.271 0.142,-37.64 c -4.087,-8.396 -7.128,-18.293 -9.238,-29.758 -0.186,-1.016 -0.567,-1.956 -1.103,-2.822 -3.81,-6.154 -15.866,-8.42 -21.672,-8.431 -10.944,-0.015 -20.776,3.496 -20.776,11.171 0,2.609 4.586,22.502 20.473,41.545 C -24.761,-17.053 -14.282,-7.395 0,0" /></g><g
                 id="g50"
                 transform="translate(190.3638,302.0352)"><path
                   id="path48"
                   style="fill:#fcfcfd;fill-opacity:1;fill-rule:nonzero;stroke:none"
                   d="M 0,0 C 14.076,7.289 31.854,12.386 54.045,12.35 60.657,12.34 66.202,11.874 73.249,10.957 75.292,10.69 76.568,8.491 76.255,5.808 76.099,4.474 75.566,3.146 74.589,2.051 73.117,0.399 70.74,-0.791 67.387,-0.8 44.906,-0.879 27.862,-6.092 15.382,-16.972 9.13,-22.423 4.023,-29.295 -0.047,-37.654 c -4.089,-8.395 -7.132,-18.287 -9.242,-29.741 -0.187,-1.015 -0.565,-1.955 -1.097,-2.823 -3.776,-6.163 -15.784,-8.443 -21.632,-8.459 -10.931,-0.017 -20.77,3.496 -20.77,11.161 0,2.597 4.605,22.523 20.53,41.581 C -24.819,-17.036 -14.313,-7.379 0,0" /></g><g
                 id="g54"
                 transform="translate(190.5234,302.0698)"><path
                   id="path52"
                   style="fill:#fbfcfc;fill-opacity:1;fill-rule:nonzero;stroke:none"
                   d="M 0,0 C 14.059,7.255 31.803,12.32 53.937,12.278 60.528,12.266 66.071,11.799 73.098,10.886 75.127,10.621 76.387,8.404 76.047,5.732 75.879,4.409 75.338,3.093 74.351,2.014 72.862,0.385 70.482,-0.79 67.141,-0.801 44.682,-0.896 27.655,-6.123 15.187,-16.999 8.938,-22.45 3.833,-29.319 -0.236,-37.669 c -4.091,-8.393 -7.136,-18.28 -9.247,-29.722 -0.187,-1.015 -0.563,-1.954 -1.089,-2.824 -3.741,-6.174 -15.704,-8.468 -21.593,-8.487 -10.919,-0.021 -20.763,3.495 -20.763,11.152 0,2.583 4.623,22.542 20.586,41.616 C -24.877,-17.019 -14.343,-7.364 0,0" /></g><g
                 id="g58"
                 transform="translate(190.6821,302.1045)"><path
                   id="path56"
                   style="fill:#fafbfb;fill-opacity:1;fill-rule:nonzero;stroke:none"
                   d="M 0,0 C 14.042,7.221 31.752,12.255 53.83,12.205 60.401,12.191 65.941,11.726 72.948,10.814 74.963,10.551 76.208,8.317 75.84,5.657 75.659,4.344 75.111,3.041 74.113,1.977 72.607,0.371 70.225,-0.789 66.896,-0.802 44.459,-0.912 27.449,-6.153 14.991,-17.024 8.745,-22.477 3.643,-29.342 -0.425,-37.685 c -4.093,-8.39 -7.139,-18.271 -9.252,-29.702 -0.186,-1.014 -0.56,-1.954 -1.082,-2.825 -3.706,-6.184 -15.622,-8.493 -21.553,-8.515 -10.905,-0.024 -20.756,3.495 -20.756,11.142 0,2.57 4.643,22.562 20.642,41.651 C -24.935,-17.002 -14.373,-7.347 0,0" /></g><g
                 id="g62"
                 transform="translate(190.8413,302.1396)"><path
                   id="path60"
                   style="fill:#f9fafb;fill-opacity:1;fill-rule:nonzero;stroke:none"
                   d="m 0,0 c 14.025,7.188 31.7,12.189 53.721,12.133 6.551,-0.016 12.09,-0.482 19.077,-1.39 1.999,-0.262 3.23,-2.513 2.835,-5.162 C 75.439,4.279 74.883,2.988 73.874,1.939 72.352,0.356 69.967,-0.788 66.649,-0.803 44.235,-0.929 27.242,-6.184 14.795,-17.051 8.552,-22.504 3.452,-29.366 -0.614,-37.7 c -4.095,-8.389 -7.143,-18.265 -9.257,-29.683 -0.187,-1.013 -0.557,-1.954 -1.074,-2.827 -3.672,-6.193 -15.542,-8.517 -21.514,-8.542 -10.893,-0.028 -20.749,3.493 -20.749,11.132 0,2.557 4.661,22.581 20.698,41.686 C -24.993,-16.984 -14.404,-7.331 0,0" /></g><g
                 id="g66"
                 transform="translate(191.001,302.1743)"><path
                   id="path64"
                   style="fill:#f8f9fa;fill-opacity:1;fill-rule:nonzero;stroke:none"
                   d="M 0,0 C 14.007,7.154 31.648,12.124 53.612,12.06 60.143,12.042 65.68,11.577 72.647,10.672 74.632,10.413 75.848,8.144 75.425,5.506 75.218,4.214 74.655,2.936 73.635,1.902 72.097,0.342 69.708,-0.786 66.403,-0.803 44.01,-0.945 27.035,-6.214 14.6,-17.078 8.359,-22.531 3.262,-29.389 -0.804,-37.714 c -4.097,-8.387 -7.146,-18.257 -9.261,-29.665 -0.187,-1.013 -0.556,-1.954 -1.068,-2.828 -3.637,-6.204 -15.46,-8.542 -21.473,-8.57 -10.881,-0.031 -20.743,3.492 -20.743,11.122 0,2.545 4.68,22.601 20.754,41.723 C -25.052,-16.967 -14.435,-7.315 0,0" /></g><g
                 id="g70"
                 transform="translate(191.1597,302.2095)"><path
                   id="path68"
                   style="fill:#f8f9f9;fill-opacity:1;fill-rule:nonzero;stroke:none"
                   d="M 0,0 C 13.991,7.12 31.597,12.058 53.505,11.987 60.016,11.967 65.549,11.502 72.497,10.6 74.468,10.343 75.668,8.057 75.218,5.431 74.999,4.149 74.427,2.883 73.396,1.865 71.842,0.327 69.451,-0.785 66.158,-0.804 43.787,-0.961 26.829,-6.245 14.404,-17.104 8.167,-22.557 3.072,-29.414 -0.992,-37.73 c -4.1,-8.385 -7.15,-18.25 -9.266,-29.645 -0.188,-1.012 -0.553,-1.955 -1.06,-2.83 -3.603,-6.212 -15.38,-8.565 -21.435,-8.596 -10.869,-0.035 -20.736,3.491 -20.736,11.111 0,2.532 4.698,22.62 20.811,41.758 C -25.109,-16.951 -14.465,-7.299 0,0" /></g><g
                 id="g74"
                 transform="translate(191.3188,302.2441)"><path
                   id="path72"
                   style="fill:#f6f8f9;fill-opacity:1;fill-rule:nonzero;stroke:none"
                   d="M 0,0 C 13.974,7.086 31.545,11.993 53.397,11.915 59.887,11.893 65.419,11.429 72.346,10.529 74.303,10.273 75.489,7.97 75.011,5.355 74.779,4.084 74.2,2.831 73.158,1.827 71.587,0.313 69.193,-0.784 65.912,-0.805 43.563,-0.978 26.623,-6.275 14.209,-17.131 7.974,-22.584 2.881,-29.438 -1.182,-37.744 c -4.101,-8.384 -7.153,-18.243 -9.271,-29.628 -0.187,-1.011 -0.549,-1.952 -1.052,-2.829 -3.568,-6.224 -15.299,-8.591 -21.395,-8.626 -10.855,-0.038 -20.729,3.491 -20.729,11.102 0,2.52 4.716,22.64 20.866,41.793 C -25.167,-16.933 -14.496,-7.283 0,0" /></g><g
                 id="g78"
                 transform="translate(191.478,302.2793)"><path
                   id="path76"
                   style="fill:#f6f7f8;fill-opacity:1;fill-rule:nonzero;stroke:none"
                   d="m 0,0 c 13.957,7.052 31.494,11.927 53.289,11.842 6.469,-0.024 12,-0.488 18.907,-1.385 C 74.138,10.204 75.31,7.884 74.804,5.279 74.559,4.02 73.972,2.778 72.919,1.79 71.332,0.298 68.936,-0.783 65.666,-0.806 43.339,-0.995 26.416,-6.306 14.013,-17.157 7.781,-22.61 2.691,-29.461 -1.371,-37.76 c -4.103,-8.382 -7.157,-18.235 -9.275,-29.608 -0.187,-1.01 -0.548,-1.952 -1.046,-2.831 -3.533,-6.234 -15.217,-8.615 -21.355,-8.653 -10.843,-0.042 -20.722,3.49 -20.722,11.092 0,2.507 4.735,22.659 20.922,41.828 C -25.226,-16.916 -14.526,-7.268 0,0" /></g><g
                 id="g82"
                 transform="translate(191.6367,302.3145)"><path
                   id="path80"
                   style="fill:#f5f6f7;fill-opacity:1;fill-rule:nonzero;stroke:none"
                   d="M 0,0 C 13.955,6.989 31.442,11.862 53.181,11.77 59.631,11.743 65.158,11.28 72.046,10.385 73.973,10.134 75.13,7.797 74.597,5.204 74.34,3.955 73.744,2.725 72.681,1.752 71.077,0.284 68.678,-0.782 65.42,-0.807 43.116,-1.012 26.209,-6.337 13.818,-17.185 7.589,-22.638 2.501,-29.484 -1.559,-37.774 c -4.107,-8.38 -7.161,-18.229 -9.281,-29.591 -0.187,-1.009 -0.545,-1.952 -1.038,-2.831 -3.498,-6.243 -15.136,-8.641 -21.316,-8.681 -10.83,-0.046 -20.715,3.489 -20.715,11.082 0,2.494 4.753,22.679 20.978,41.864 C -25.283,-16.899 -14.541,-7.282 0,0" /></g><g
                 id="g86"
                 transform="translate(191.7959,302.3491)"><path
                   id="path84"
                   style="fill:#f3f5f7;fill-opacity:1;fill-rule:nonzero;stroke:none"
                   d="m 0,0 c 13.938,6.953 31.391,11.796 53.073,11.697 6.43,-0.029 11.955,-0.49 18.823,-1.383 1.913,-0.25 3.055,-2.603 2.494,-5.186 C 74.121,3.89 73.516,2.673 72.442,1.715 70.822,0.27 68.42,-0.781 65.174,-0.808 42.893,-1.028 26.003,-6.367 13.623,-17.21 7.396,-22.665 2.311,-29.508 -1.748,-37.79 c -4.108,-8.377 -7.164,-18.22 -9.286,-29.571 -0.188,-1.009 -0.542,-1.951 -1.03,-2.833 -3.465,-6.253 -15.056,-8.664 -21.277,-8.708 -10.818,-0.049 -20.708,3.488 -20.708,11.072 0,2.482 4.772,22.699 21.034,41.9 C -25.341,-16.882 -14.57,-7.268 0,0" /></g><g
                 id="g90"
                 transform="translate(191.9551,302.3843)"><path
                   id="path88"
                   style="fill:#f3f5f6;fill-opacity:1;fill-rule:nonzero;stroke:none"
                   d="M 0,0 C 13.922,6.917 31.339,11.731 52.965,11.625 59.374,11.594 64.897,11.132 71.746,10.243 73.644,9.995 74.772,7.625 74.182,5.052 73.901,3.826 73.288,2.62 72.204,1.677 70.567,0.255 68.163,-0.78 64.929,-0.809 42.669,-1.045 25.796,-6.398 13.427,-17.237 7.204,-22.692 2.12,-29.533 -1.937,-37.804 c -4.111,-8.377 -7.168,-18.214 -9.29,-29.554 -0.188,-1.007 -0.541,-1.95 -1.024,-2.834 -3.43,-6.263 -14.974,-8.688 -21.237,-8.735 -10.805,-0.052 -20.701,3.487 -20.701,11.062 0,2.468 4.79,22.718 21.09,41.935 7.7,9.064 18.498,18.676 33.099,25.93" /></g><g
                 id="g94"
                 transform="translate(192.1143,302.4189)"><path
                   id="path92"
                   style="fill:#f2f4f5;fill-opacity:1;fill-rule:nonzero;stroke:none"
                   d="M 0,0 C 13.906,6.882 31.287,11.666 52.857,11.552 59.246,11.52 64.766,11.059 71.595,10.171 73.479,9.925 74.593,7.539 73.975,4.977 73.681,3.761 73.06,2.568 71.965,1.64 70.312,0.241 67.905,-0.779 64.683,-0.81 42.445,-1.061 25.59,-6.428 13.231,-17.264 7.011,-22.719 1.93,-29.557 -2.126,-37.819 c -4.113,-8.374 -7.172,-18.206 -9.295,-29.535 -0.188,-1.006 -0.538,-1.951 -1.017,-2.834 -3.395,-6.274 -14.893,-8.713 -21.197,-8.763 -10.792,-0.057 -20.694,3.485 -20.695,11.052 0,2.456 4.809,22.737 21.147,41.969 C -25.458,-16.849 -14.63,-7.24 0,0" /></g><g
                 id="g98"
                 transform="translate(192.2734,302.4541)"><path
                   id="path96"
                   style="fill:#f1f3f5;fill-opacity:1;fill-rule:nonzero;stroke:none"
                   d="m 0,0 c 13.89,6.847 31.235,11.6 52.749,11.479 6.369,-0.034 11.887,-0.495 18.696,-1.38 1.869,-0.244 2.97,-2.647 2.323,-5.198 C 73.462,3.696 72.832,2.515 71.727,1.603 70.058,0.226 67.647,-0.778 64.437,-0.811 42.221,-1.078 25.384,-6.459 13.036,-17.29 6.819,-22.746 1.739,-29.58 -2.315,-37.834 c -4.116,-8.373 -7.175,-18.2 -9.3,-29.517 -0.189,-1.005 -0.536,-1.95 -1.01,-2.836 -3.36,-6.282 -14.812,-8.737 -21.157,-8.79 -10.78,-0.059 -20.687,3.486 -20.687,11.042 0,2.443 4.826,22.757 21.202,42.005 C -25.516,-16.831 -14.659,-7.226 0,0" /></g><g
                 id="g102"
                 transform="translate(192.4326,302.4893)"><path
                   id="path100"
                   style="fill:#f0f2f4;fill-opacity:1;fill-rule:nonzero;stroke:none"
                   d="M 0,0 C 13.874,6.811 31.184,11.534 52.641,11.406 58.989,11.37 64.505,10.91 71.294,10.027 73.148,9.785 74.236,7.366 73.56,4.825 73.243,3.632 72.604,2.462 71.487,1.565 69.802,0.211 67.39,-0.777 64.19,-0.812 41.998,-1.094 25.177,-6.489 12.841,-17.317 6.626,-22.773 1.549,-29.604 -2.504,-37.85 c -4.118,-8.371 -7.18,-18.192 -9.305,-29.497 -0.189,-1.005 -0.533,-1.949 -1.002,-2.837 -3.326,-6.293 -14.731,-8.762 -21.118,-8.818 -10.767,-0.063 -20.681,3.484 -20.681,11.032 0,2.43 4.846,22.778 21.259,42.041 C -25.573,-16.814 -14.689,-7.212 0,0" /></g><g
                 id="g106"
                 transform="translate(192.5918,302.5234)"><path
                   id="path104"
                   style="fill:#eff2f3;fill-opacity:1;fill-rule:nonzero;stroke:none"
                   d="M 0,0 C 13.857,6.776 31.132,11.469 52.533,11.334 58.861,11.296 64.375,10.836 71.144,9.957 72.984,9.717 74.057,7.28 73.353,4.75 73.023,3.567 72.376,2.41 71.249,1.528 69.547,0.197 67.132,-0.775 63.944,-0.812 41.774,-1.11 24.971,-6.519 12.645,-17.343 6.434,-22.8 1.358,-29.627 -2.693,-37.864 c -4.12,-8.369 -7.182,-18.185 -9.31,-29.479 -0.188,-1.004 -0.53,-1.949 -0.995,-2.838 -3.291,-6.302 -14.649,-8.787 -21.078,-8.845 -10.755,-0.067 -20.674,3.483 -20.674,11.022 0,2.417 4.864,22.797 21.314,42.076 C -25.632,-16.797 -14.719,-7.197 0,0" /></g><g
                 id="g110"
                 transform="translate(192.7505,302.5586)"><path
                   id="path108"
                   style="fill:#eef1f2;fill-opacity:1;fill-rule:nonzero;stroke:none"
                   d="m 0,0 c 13.841,6.741 31.082,11.403 52.425,11.262 6.308,-0.041 11.82,-0.5 18.569,-1.377 C 72.819,9.646 73.88,7.194 73.146,4.675 72.804,3.502 72.149,2.357 71.01,1.49 69.292,0.183 66.875,-0.774 63.699,-0.813 41.55,-1.127 24.764,-6.55 12.45,-17.37 6.242,-22.826 1.168,-29.651 -2.882,-37.879 c -4.121,-8.368 -7.186,-18.178 -9.315,-29.46 -0.188,-1.004 -0.528,-1.949 -0.986,-2.839 -3.258,-6.312 -14.569,-8.811 -21.04,-8.874 -10.741,-0.07 -20.667,3.483 -20.667,11.013 0,2.404 4.883,22.816 21.371,42.111 C -25.689,-16.78 -14.749,-7.183 0,0" /></g><g
                 id="g114"
                 transform="translate(192.9102,302.5938)"><path
                   id="path112"
                   style="fill:#edf0f2;fill-opacity:1;fill-rule:nonzero;stroke:none"
                   d="M 0,0 C 13.824,6.706 31.029,11.338 52.316,11.188 58.604,11.146 64.113,10.688 70.843,9.813 72.654,9.577 73.702,7.108 72.938,4.599 72.585,3.438 71.921,2.305 70.771,1.453 69.037,0.168 66.616,-0.773 63.453,-0.813 41.326,-1.144 24.558,-6.581 12.254,-17.396 6.048,-22.854 0.978,-29.675 -3.071,-37.895 c -4.124,-8.365 -7.19,-18.17 -9.32,-29.44 -0.189,-1.003 -0.526,-1.948 -0.979,-2.841 -3.223,-6.322 -14.488,-8.836 -21,-8.901 -10.73,-0.073 -20.66,3.482 -20.66,11.003 0,2.391 4.901,22.836 21.426,42.146 C -25.748,-16.763 -14.779,-7.169 0,0" /></g><g
                 id="g118"
                 transform="translate(193.0693,302.6289)"><path
                   id="path116"
                   style="fill:#edeff1;fill-opacity:1;fill-rule:nonzero;stroke:none"
                   d="M 0,0 C 13.808,6.67 30.978,11.272 52.208,11.116 58.476,11.071 63.983,10.614 70.693,9.741 72.489,9.507 73.523,7.022 72.73,4.523 72.366,3.373 71.692,2.251 70.533,1.415 68.782,0.153 66.358,-0.772 63.207,-0.814 41.103,-1.16 24.351,-6.611 12.059,-17.424 5.855,-22.88 0.788,-29.699 -3.261,-37.909 c -4.126,-8.363 -7.193,-18.163 -9.324,-29.423 -0.188,-1.001 -0.522,-1.948 -0.972,-2.841 -3.188,-6.333 -14.407,-8.861 -20.961,-8.93 -10.715,-0.076 -20.652,3.482 -20.652,10.994 0,2.378 4.919,22.855 21.482,42.181 C -25.806,-16.746 -14.809,-7.154 0,0" /></g><g
                 id="g122"
                 transform="translate(193.2285,302.6631)"><path
                   id="path120"
                   style="fill:#ebeef0;fill-opacity:1;fill-rule:nonzero;stroke:none"
                   d="M 0,0 C 13.791,6.635 30.926,11.207 52.101,11.044 58.348,10.997 63.853,10.54 70.542,9.671 72.324,9.438 73.346,6.937 72.523,4.448 72.147,3.309 71.465,2.2 70.294,1.378 68.527,0.14 66.101,-0.771 62.961,-0.814 40.879,-1.176 24.144,-6.641 11.863,-17.449 5.663,-22.906 0.598,-29.723 -3.449,-37.924 c -4.129,-8.361 -7.197,-18.156 -9.329,-29.403 -0.19,-1.001 -0.521,-1.948 -0.965,-2.843 -3.154,-6.342 -14.326,-8.885 -20.921,-8.956 -10.704,-0.081 -20.647,3.48 -20.647,10.982 0,2.367 4.938,22.875 21.54,42.218 C -25.864,-16.729 -14.839,-7.14 0,0" /></g><g
                 id="g126"
                 transform="translate(193.3877,302.6982)"><path
                   id="path124"
                   style="fill:#eaeef0;fill-opacity:1;fill-rule:nonzero;stroke:none"
                   d="m 0,0 c 13.774,6.601 30.874,11.142 51.992,10.971 6.227,-0.048 11.73,-0.505 18.4,-1.372 C 72.159,9.368 73.168,6.851 72.316,4.372 71.929,3.244 71.236,2.147 70.056,1.341 68.272,0.125 65.843,-0.771 62.715,-0.816 40.655,-1.193 23.938,-6.672 11.667,-17.477 5.47,-22.934 0.407,-29.746 -3.639,-37.938 c -4.131,-8.361 -7.2,-18.15 -9.333,-29.386 -0.19,-1 -0.519,-1.947 -0.958,-2.844 -3.119,-6.352 -14.245,-8.909 -20.882,-8.983 -10.691,-0.084 -20.639,3.478 -20.639,10.972 0,2.353 4.957,22.895 21.596,42.253 C -25.922,-16.712 -14.869,-7.125 0,0" /></g><g
                 id="g130"
                 transform="translate(193.5464,302.7334)"><path
                   id="path128"
                   style="fill:#eaedef;fill-opacity:1;fill-rule:nonzero;stroke:none"
                   d="M 0,0 C 13.758,6.565 30.823,11.076 51.884,10.898 58.091,10.848 63.592,10.392 70.243,9.527 71.995,9.299 72.99,6.765 72.109,4.296 71.71,3.18 71.009,2.094 69.817,1.303 68.017,0.11 65.585,-0.77 62.469,-0.817 40.432,-1.21 23.731,-6.703 11.472,-17.503 5.278,-22.961 0.217,-29.77 -3.827,-37.954 c -4.133,-8.359 -7.204,-18.142 -9.339,-29.366 -0.189,-1 -0.516,-1.948 -0.95,-2.846 -3.085,-6.361 -14.164,-8.934 -20.842,-9.011 -10.678,-0.088 -20.632,3.479 -20.632,10.963 0,2.341 4.974,22.914 21.651,42.288 C -25.98,-16.695 -14.899,-7.11 0,0" /></g><g
                 id="g134"
                 transform="translate(193.7056,302.7681)"><path
                   id="path132"
                   style="fill:#e8ecee;fill-opacity:1;fill-rule:nonzero;stroke:none"
                   d="M 0,0 C 13.742,6.531 30.771,11.01 51.776,10.826 57.963,10.773 63.461,10.318 70.092,9.456 71.83,9.229 72.814,6.679 71.902,4.221 71.492,3.115 70.781,2.042 69.579,1.266 67.763,0.096 65.328,-0.768 62.223,-0.817 40.208,-1.226 23.525,-6.733 11.277,-17.529 5.085,-22.988 0.027,-29.793 -4.016,-37.968 c -4.135,-8.358 -7.208,-18.135 -9.343,-29.348 -0.19,-0.999 -0.514,-1.947 -0.944,-2.847 -3.05,-6.372 -14.082,-8.958 -20.802,-9.039 -10.666,-0.09 -20.625,3.478 -20.626,10.953 0,2.328 4.994,22.935 21.707,42.324 C -26.038,-16.677 -14.929,-7.095 0,0" /></g><g
                 id="g138"
                 transform="translate(193.8647,302.8032)"><path
                   id="path136"
                   style="fill:#e8ebee;fill-opacity:1;fill-rule:nonzero;stroke:none"
                   d="M 0,0 C 13.725,6.496 30.72,10.945 51.668,10.753 57.834,10.699 63.331,10.243 69.941,9.384 71.665,9.16 72.637,6.593 71.695,4.145 71.273,3.05 70.553,1.989 69.339,1.228 67.507,0.082 65.07,-0.768 61.977,-0.818 39.984,-1.243 23.318,-6.764 11.081,-17.556 4.893,-23.015 -0.164,-29.818 -4.205,-37.984 c -4.138,-8.354 -7.212,-18.127 -9.348,-29.329 -0.191,-0.998 -0.511,-1.946 -0.936,-2.847 -3.015,-6.382 -14.002,-8.983 -20.763,-9.067 -10.653,-0.095 -20.619,3.477 -20.619,10.943 0,2.315 5.012,22.954 21.763,42.359 C -26.096,-16.661 -14.959,-7.081 0,0" /></g><g
                 id="g142"
                 transform="translate(194.0234,302.8379)"><path
                   id="path140"
                   style="fill:#e7ebed;fill-opacity:1;fill-rule:nonzero;stroke:none"
                   d="M 0,0 C 13.708,6.462 30.669,10.879 51.561,10.681 57.707,10.624 63.2,10.169 69.792,9.313 71.5,9.09 72.46,6.508 71.488,4.07 71.055,2.986 70.326,1.937 69.102,1.191 67.253,0.067 64.813,-0.766 61.731,-0.819 39.761,-1.26 23.112,-6.794 10.886,-17.582 c -6.185,-5.46 -11.24,-12.259 -15.28,-20.417 -4.14,-8.353 -7.214,-18.119 -9.353,-29.31 -0.19,-0.997 -0.509,-1.946 -0.929,-2.848 -2.98,-6.392 -13.92,-9.008 -20.722,-9.094 -10.642,-0.099 -20.612,3.475 -20.613,10.933 0,2.301 5.031,22.973 21.82,42.393 C -26.153,-16.644 -14.988,-7.064 0,0" /></g><g
                 id="g146"
                 transform="translate(194.1826,302.873)"><path
                   id="path144"
                   style="fill:#e5eaec;fill-opacity:1;fill-rule:nonzero;stroke:none"
                   d="M 0,0 C 13.692,6.427 30.617,10.813 51.452,10.608 57.578,10.549 63.069,10.095 69.641,9.241 71.335,9.02 72.284,6.421 71.281,3.995 70.837,2.921 70.098,1.883 68.863,1.154 66.998,0.052 64.555,-0.765 61.486,-0.82 39.537,-1.276 22.905,-6.825 10.69,-17.609 4.508,-23.069 -0.544,-29.865 -4.583,-38.015 c -4.142,-8.35 -7.218,-18.111 -9.357,-29.291 -0.191,-0.996 -0.507,-1.945 -0.922,-2.849 -2.946,-6.402 -13.839,-9.032 -20.684,-9.121 -10.628,-0.103 -20.604,3.474 -20.605,10.922 0,2.29 5.049,22.994 21.876,42.429 C -26.212,-16.626 -15.019,-7.05 0,0" /></g><g
                 id="g150"
                 transform="translate(194.3418,302.9082)"><path
                   id="path148"
                   style="fill:#e5e9ec;fill-opacity:1;fill-rule:nonzero;stroke:none"
                   d="M 0,0 C 13.675,6.393 30.565,10.748 51.344,10.535 57.45,10.474 62.939,10.021 69.491,9.169 71.17,8.95 72.107,6.336 71.073,3.919 70.619,2.856 69.87,1.831 68.625,1.116 66.743,0.038 64.297,-0.764 61.24,-0.821 39.313,-1.293 22.699,-6.855 10.494,-17.636 4.315,-23.096 -0.734,-29.889 -4.771,-38.029 c -4.145,-8.349 -7.223,-18.106 -9.364,-29.273 -0.19,-0.996 -0.503,-1.945 -0.914,-2.85 -2.911,-6.411 -13.758,-9.057 -20.644,-9.15 -10.616,-0.105 -20.598,3.474 -20.598,10.913 0,2.277 5.067,23.013 21.932,42.465 C -26.27,-16.609 -15.049,-7.035 0,0" /></g><g
                 id="g154"
                 transform="translate(194.501,302.9424)"><path
                   id="path152"
                   style="fill:#e4e8eb;fill-opacity:1;fill-rule:nonzero;stroke:none"
                   d="M 0,0 C 13.658,6.358 30.514,10.684 51.236,10.463 57.322,10.4 62.809,9.947 69.341,9.099 71.006,8.881 71.931,6.25 70.866,3.844 70.4,2.792 69.643,1.779 68.386,1.08 66.488,0.024 64.04,-0.763 60.994,-0.821 39.089,-1.309 22.493,-6.886 10.299,-17.662 c -6.176,-5.46 -11.224,-12.25 -15.26,-20.381 -4.146,-8.348 -7.226,-18.099 -9.367,-29.255 -0.191,-0.995 -0.502,-1.944 -0.907,-2.851 -2.877,-6.421 -13.677,-9.08 -20.605,-9.177 -10.602,-0.11 -20.591,3.472 -20.591,10.903 0,2.264 5.085,23.032 21.987,42.5 C -26.328,-16.592 -15.079,-7.02 0,0" /></g><g
                 id="g158"
                 transform="translate(194.6602,302.9775)"><path
                   id="path156"
                   style="fill:#e3e7ea;fill-opacity:1;fill-rule:nonzero;stroke:none"
                   d="M 0,0 C 13.641,6.324 30.462,10.617 51.128,10.39 57.193,10.325 62.678,9.873 69.19,9.026 70.84,8.812 71.755,6.165 70.659,3.768 70.183,2.728 69.414,1.726 68.146,1.042 66.232,0.009 63.782,-0.762 60.748,-0.822 38.865,-1.325 22.286,-6.916 10.104,-17.688 3.93,-23.149 -1.115,-29.936 -5.149,-38.059 c -4.15,-8.345 -7.23,-18.09 -9.373,-29.235 -0.191,-0.994 -0.499,-1.944 -0.9,-2.852 -2.842,-6.432 -13.596,-9.106 -20.565,-9.206 -10.59,-0.112 -20.584,3.473 -20.584,10.894 0,2.251 5.104,23.052 22.043,42.536 C -26.386,-16.575 -15.11,-7.005 0,0" /></g><g
                 id="g162"
                 transform="translate(194.8193,303.0127)"><path
                   id="path160"
                   style="fill:#e2e7e9;fill-opacity:1;fill-rule:nonzero;stroke:none"
                   d="M 0,0 C 13.624,6.29 30.411,10.552 51.02,10.317 57.065,10.251 62.547,9.799 69.04,8.955 70.676,8.742 71.579,6.079 70.451,3.692 69.964,2.663 69.187,1.673 67.908,1.004 65.978,-0.006 63.524,-0.761 60.502,-0.823 38.642,-1.342 22.08,-6.947 9.908,-17.715 3.737,-23.176 -1.306,-29.961 -5.339,-38.073 c -4.151,-8.344 -7.233,-18.084 -9.377,-29.218 -0.191,-0.992 -0.496,-1.943 -0.892,-2.854 -2.808,-6.441 -13.516,-9.129 -20.526,-9.232 -10.577,-0.116 -20.577,3.472 -20.578,10.884 0,2.237 5.123,23.071 22.1,42.57 C -26.444,-16.559 -15.14,-6.989 0,0" /></g><g
                 id="g166"
                 transform="translate(194.9785,303.0479)"><path
                   id="path164"
                   style="fill:#e1e6e9;fill-opacity:1;fill-rule:nonzero;stroke:none"
                   d="M 0,0 C 13.607,6.255 30.359,10.486 50.912,10.245 56.937,10.176 62.417,9.725 68.89,8.884 70.511,8.672 71.403,5.992 70.244,3.616 69.747,2.598 68.958,1.62 67.669,0.967 65.723,-0.021 63.267,-0.76 60.256,-0.824 38.418,-1.359 21.873,-6.978 9.712,-17.742 3.545,-23.203 -1.496,-29.984 -5.528,-38.089 c -4.153,-8.343 -7.237,-18.076 -9.382,-29.198 -0.192,-0.992 -0.494,-1.943 -0.885,-2.856 -2.773,-6.451 -13.434,-9.154 -20.486,-9.259 -10.565,-0.119 -20.571,3.47 -20.571,10.874 0,2.224 5.141,23.09 22.156,42.606 C -26.502,-16.541 -15.17,-6.974 0,0" /></g><g
                 id="g170"
                 transform="translate(195.1377,303.082)"><path
                   id="path168"
                   style="fill:#e1e5e8;fill-opacity:1;fill-rule:nonzero;stroke:none"
                   d="M 0,0 C 13.59,6.221 30.308,10.421 50.804,10.172 56.808,10.102 62.286,9.651 68.739,8.813 70.346,8.603 71.228,5.906 70.037,3.542 69.529,2.533 68.73,1.568 67.431,0.93 65.468,-0.034 63.009,-0.759 60.01,-0.824 38.194,-1.375 21.666,-7.007 9.517,-17.769 3.352,-23.229 -1.686,-30.008 -5.717,-38.103 c -4.155,-8.34 -7.241,-18.07 -9.387,-29.179 -0.191,-0.992 -0.492,-1.944 -0.877,-2.857 -2.74,-6.461 -13.353,-9.178 -20.448,-9.288 -10.551,-0.123 -20.563,3.471 -20.563,10.864 0,2.212 5.16,23.111 22.212,42.642 C -26.56,-16.523 -15.201,-6.958 0,0" /></g><g
                 id="g174"
                 transform="translate(195.2969,303.1172)"><path
                   id="path172"
                   style="fill:#dfe4e7;fill-opacity:1;fill-rule:nonzero;stroke:none"
                   d="M 0,0 C 13.573,6.187 30.256,10.355 50.696,10.1 56.68,10.027 62.156,9.577 68.588,8.741 70.181,8.533 71.051,5.821 69.829,3.466 69.312,2.468 68.502,1.516 67.192,0.893 65.213,-0.049 62.75,-0.758 59.765,-0.825 37.971,-1.391 21.459,-7.038 9.321,-17.795 3.159,-23.257 -1.877,-30.031 -5.906,-38.118 c -4.158,-8.339 -7.244,-18.063 -9.392,-29.161 -0.191,-0.991 -0.489,-1.943 -0.87,-2.858 -2.704,-6.469 -13.271,-9.203 -20.407,-9.314 -10.54,-0.127 -20.557,3.469 -20.557,10.853 0,2.2 5.178,23.13 22.267,42.677 C -26.618,-16.507 -15.231,-6.942 0,0" /></g><g
                 id="g178"
                 transform="translate(195.4561,303.1523)"><path
                   id="path176"
                   style="fill:#dee3e7;fill-opacity:1;fill-rule:nonzero;stroke:none"
                   d="M 0,0 C 13.556,6.153 30.204,10.29 50.588,10.027 56.552,9.952 62.025,9.503 68.438,8.669 70.016,8.463 70.877,5.733 69.622,3.39 69.094,2.403 68.274,1.463 66.954,0.854 64.958,-0.063 62.493,-0.757 59.519,-0.827 37.747,-1.408 21.253,-7.069 9.126,-17.821 2.967,-23.284 -2.067,-30.056 -6.095,-38.134 c -4.16,-8.336 -7.248,-18.054 -9.397,-29.142 -0.192,-0.99 -0.487,-1.942 -0.862,-2.858 -2.67,-6.48 -13.191,-9.227 -20.368,-9.343 -10.527,-0.129 -20.55,3.468 -20.55,10.844 0,2.187 5.196,23.15 22.323,42.712 C -26.676,-16.489 -15.262,-6.927 0,0" /></g><g
                 id="g182"
                 transform="translate(195.6152,303.187)"><path
                   id="path180"
                   style="fill:#dee3e6;fill-opacity:1;fill-rule:nonzero;stroke:none"
                   d="M 0,0 C 13.539,6.119 30.153,10.225 50.479,9.955 56.423,9.878 61.895,9.429 68.288,8.598 69.851,8.394 70.702,5.648 69.415,3.314 68.877,2.339 68.047,1.411 66.715,0.817 64.703,-0.078 62.235,-0.755 59.272,-0.827 37.523,-1.424 21.047,-7.099 8.93,-17.848 2.774,-23.311 -2.257,-30.079 -6.284,-38.149 c -4.162,-8.334 -7.251,-18.047 -9.402,-29.123 -0.191,-0.989 -0.484,-1.941 -0.856,-2.859 -2.635,-6.491 -13.109,-9.252 -20.327,-9.37 -10.515,-0.134 -20.543,3.466 -20.543,10.834 0,2.173 5.215,23.168 22.379,42.747 C -26.734,-16.472 -15.292,-6.912 0,0" /></g><g
                 id="g186"
                 transform="translate(195.7744,303.2222)"><path
                   id="path184"
                   style="fill:#dce2e5;fill-opacity:1;fill-rule:nonzero;stroke:none"
                   d="M 0,0 C 13.521,6.085 30.101,10.159 50.371,9.882 56.295,9.803 61.764,9.354 68.138,8.526 69.686,8.324 70.526,5.562 69.207,3.239 68.659,2.274 67.818,1.358 66.476,0.78 64.447,-0.092 61.978,-0.754 59.026,-0.828 37.299,-1.441 20.84,-7.129 8.734,-17.875 2.581,-23.338 -2.447,-30.102 -6.473,-38.164 c -4.165,-8.333 -7.255,-18.04 -9.406,-29.104 -0.192,-0.988 -0.482,-1.941 -0.849,-2.86 -2.601,-6.501 -13.028,-9.278 -20.289,-9.399 -10.502,-0.137 -20.535,3.466 -20.536,10.824 0,2.161 5.234,23.189 22.436,42.783 C -26.792,-16.456 -15.323,-6.896 0,0" /></g><g
                 id="g190"
                 transform="translate(195.9331,303.2568)"><path
                   id="path188"
                   style="fill:#dbe1e4;fill-opacity:1;fill-rule:nonzero;stroke:none"
                   d="M 0,0 C 13.505,6.052 30.05,10.094 50.264,9.81 56.167,9.729 61.634,9.28 67.988,8.455 69.521,8.255 70.353,5.475 69,3.164 68.442,2.209 67.591,1.306 66.238,0.743 64.193,-0.106 61.72,-0.753 58.781,-0.829 37.076,-1.458 20.634,-7.16 8.54,-17.901 2.389,-23.364 -2.637,-30.126 -6.662,-38.178 c -4.167,-8.332 -7.258,-18.033 -9.411,-29.086 -0.192,-0.988 -0.479,-1.941 -0.841,-2.862 -2.566,-6.511 -12.947,-9.301 -20.249,-9.426 -10.489,-0.14 -20.529,3.466 -20.529,10.815 0,2.148 5.252,23.209 22.491,42.817 C -26.85,-16.438 -15.353,-6.879 0,0" /></g><g
                 id="g194"
                 transform="translate(196.0923,303.292)"><path
                   id="path192"
                   style="fill:#dae0e4;fill-opacity:1;fill-rule:nonzero;stroke:none"
                   d="M 0,0 C 13.488,6.018 29.999,10.028 50.156,9.736 56.039,9.654 61.503,9.206 67.837,8.383 69.357,8.185 70.18,5.388 68.793,3.087 68.225,2.144 67.363,1.253 66,0.705 63.938,-0.121 61.462,-0.752 58.535,-0.83 36.852,-1.475 20.427,-7.191 8.344,-17.928 2.197,-23.392 -2.828,-30.15 -6.85,-38.193 c -4.17,-8.329 -7.263,-18.026 -9.416,-29.068 -0.193,-0.986 -0.478,-1.94 -0.835,-2.862 -2.531,-6.521 -12.866,-9.326 -20.209,-9.453 -10.477,-0.145 -20.522,3.464 -20.523,10.804 0,2.135 5.271,23.228 22.548,42.853 C -26.908,-16.422 -15.384,-6.864 0,0" /></g><g
                 id="g198"
                 transform="translate(196.2515,303.3271)"><path
                   id="path196"
                   style="fill:#d9dfe3;fill-opacity:1;fill-rule:nonzero;stroke:none"
                   d="M 0,0 C 13.471,5.984 29.947,9.962 50.047,9.664 55.911,9.579 61.373,9.132 67.687,8.312 69.191,8.115 70.005,5.301 68.586,3.012 68.007,2.079 67.135,1.2 65.761,0.667 63.683,-0.136 61.205,-0.752 58.289,-0.831 36.628,-1.491 20.221,-7.222 8.148,-17.955 2.003,-23.419 -3.019,-30.175 -7.04,-38.209 c -4.171,-8.327 -7.265,-18.019 -9.42,-29.049 -0.193,-0.985 -0.475,-1.939 -0.828,-2.863 -2.496,-6.53 -12.785,-9.351 -20.169,-9.481 -10.464,-0.148 -20.515,3.463 -20.515,10.794 0,2.123 5.288,23.248 22.603,42.889 C -26.966,-16.405 -15.415,-6.848 0,0" /></g><g
                 id="g202"
                 transform="translate(196.4111,303.3618)"><path
                   id="path200"
                   style="fill:#d9dfe2;fill-opacity:1;fill-rule:nonzero;stroke:none"
                   d="M 0,0 C 13.453,5.95 29.895,9.897 49.939,9.591 55.782,9.504 61.241,9.058 67.536,8.24 69.026,8.045 69.83,5.215 68.378,2.937 67.79,2.014 66.907,1.147 65.521,0.63 63.428,-0.15 60.946,-0.75 58.042,-0.832 36.404,-1.507 20.014,-7.252 7.952,-17.981 1.811,-23.446 -3.209,-30.198 -7.229,-38.223 c -4.174,-8.325 -7.27,-18.011 -9.426,-29.03 -0.193,-0.986 -0.472,-1.94 -0.82,-2.866 -2.462,-6.54 -12.704,-9.375 -20.129,-9.507 -10.452,-0.152 -20.509,3.462 -20.509,10.784 0,2.109 5.307,23.267 22.66,42.924 C -27.024,-16.387 -15.446,-6.832 0,0" /></g><g
                 id="g206"
                 transform="translate(196.5693,303.3965)"><path
                   id="path204"
                   style="fill:#d7dee1;fill-opacity:1;fill-rule:nonzero;stroke:none"
                   d="M 0,0 C 13.437,5.917 29.844,9.832 49.832,9.52 55.654,9.43 61.112,8.984 67.386,8.169 68.862,7.977 69.656,5.128 68.172,2.861 67.574,1.949 66.68,1.095 65.284,0.593 63.173,-0.164 60.689,-0.749 57.797,-0.832 36.182,-1.523 19.808,-7.282 7.758,-18.007 1.619,-23.472 -3.398,-30.222 -7.417,-38.237 c -4.176,-8.325 -7.273,-18.005 -9.431,-29.012 -0.193,-0.984 -0.469,-1.939 -0.812,-2.866 -2.427,-6.55 -12.623,-9.4 -20.091,-9.536 -10.438,-0.156 -20.501,3.462 -20.501,10.774 0,2.097 5.325,23.287 22.715,42.96 C -27.082,-16.37 -15.475,-6.815 0,0" /></g><g
                 id="g210"
                 transform="translate(196.7285,303.4316)"><path
                   id="path208"
                   style="fill:#d7dde1;fill-opacity:1;fill-rule:nonzero;stroke:none"
                   d="M 0,0 C 13.419,5.884 29.792,9.766 49.724,9.446 55.526,9.355 60.981,8.91 67.236,8.097 68.697,7.906 69.483,5.041 67.964,2.785 67.357,1.883 66.452,1.042 65.045,0.556 62.919,-0.179 60.432,-0.748 57.552,-0.833 35.958,-1.54 19.602,-7.313 7.562,-18.034 1.427,-23.499 -3.589,-30.245 -7.606,-38.253 c -4.178,-8.322 -7.277,-17.997 -9.436,-28.993 -0.192,-0.983 -0.467,-1.939 -0.805,-2.866 -2.392,-6.561 -12.541,-9.425 -20.05,-9.565 -10.426,-0.158 -20.495,3.461 -20.496,10.765 0,2.084 5.345,23.307 22.772,42.995 C -27.14,-16.354 -15.507,-6.799 0,0" /></g><g
                 id="g214"
                 transform="translate(196.8877,303.4663)"><path
                   id="path212"
                   style="fill:#d6dce0;fill-opacity:1;fill-rule:nonzero;stroke:none"
                   d="M 0,0 C 13.402,5.851 29.74,9.701 49.616,9.374 55.397,9.281 60.851,8.836 67.086,8.026 68.532,7.837 69.31,4.955 67.757,2.71 67.14,1.819 66.224,0.99 64.807,0.518 62.664,-0.193 60.174,-0.747 57.306,-0.833 35.733,-1.557 19.395,-7.343 7.366,-18.061 1.234,-23.526 -3.779,-30.269 -7.795,-38.268 c -4.181,-8.32 -7.281,-17.989 -9.44,-28.974 -0.194,-0.983 -0.465,-1.938 -0.798,-2.868 -2.359,-6.57 -12.461,-9.448 -20.012,-9.592 -10.413,-0.161 -20.487,3.461 -20.488,10.755 0,2.072 5.363,23.326 22.828,43.03 C -27.198,-16.336 -15.537,-6.783 0,0" /></g><g
                 id="g218"
                 transform="translate(197.0469,303.501)"><path
                   id="path216"
                   style="fill:#d4dbdf;fill-opacity:1;fill-rule:nonzero;stroke:none"
                   d="M 0,0 C 13.384,5.817 29.689,9.635 49.508,9.302 55.269,9.207 60.72,8.762 66.936,7.955 68.367,7.768 69.136,4.866 67.55,2.635 66.923,1.754 65.996,0.938 64.567,0.481 62.408,-0.207 59.916,-0.745 57.06,-0.834 35.51,-1.573 19.188,-7.374 7.171,-18.087 1.042,-23.553 -3.97,-30.292 -7.984,-38.282 c -4.183,-8.319 -7.285,-17.983 -9.446,-28.956 -0.193,-0.982 -0.462,-1.938 -0.79,-2.869 -2.324,-6.58 -12.38,-9.473 -19.972,-9.62 -10.401,-0.165 -20.481,3.46 -20.481,10.746 0,2.058 5.381,23.345 22.884,43.065 C -27.256,-16.318 -15.567,-6.766 0,0" /></g><g
                 id="g222"
                 transform="translate(197.2061,303.5361)"><path
                   id="path220"
                   style="fill:#d4dade;fill-opacity:1;fill-rule:nonzero;stroke:none"
                   d="M 0,0 C 13.367,5.784 29.638,9.569 49.4,9.229 55.141,9.131 60.59,8.688 66.785,7.883 68.202,7.698 68.964,4.779 67.342,2.559 66.707,1.688 65.768,0.885 64.329,0.443 62.154,-0.222 59.658,-0.745 56.813,-0.835 35.286,-1.59 18.982,-7.404 6.976,-18.113 0.849,-23.58 -4.16,-30.316 -8.173,-38.298 c -4.185,-8.316 -7.288,-17.975 -9.451,-28.936 -0.193,-0.982 -0.459,-1.938 -0.782,-2.87 -2.29,-6.59 -12.299,-9.499 -19.933,-9.648 -10.388,-0.168 -20.474,3.459 -20.474,10.735 0,2.046 5.399,23.366 22.94,43.101 C -27.314,-16.303 -15.599,-6.75 0,0" /></g><g
                 id="g226"
                 transform="translate(197.3657,303.5713)"><path
                   id="path224"
                   style="fill:#d3dade;fill-opacity:1;fill-rule:nonzero;stroke:none"
                   d="M 0,0 C 13.35,5.75 29.585,9.504 49.291,9.155 55.012,9.057 60.458,8.614 66.634,7.811 68.037,7.628 68.789,4.691 67.134,2.483 66.489,1.622 65.54,0.832 64.09,0.406 61.898,-0.236 59.4,-0.744 56.567,-0.836 35.062,-1.606 18.775,-7.436 6.78,-18.141 c -6.125,-5.466 -11.131,-12.2 -15.143,-20.172 -4.187,-8.315 -7.291,-17.968 -9.455,-28.918 -0.193,-0.98 -0.457,-1.937 -0.775,-2.872 -2.255,-6.599 -12.218,-9.522 -19.894,-9.674 -10.375,-0.172 -20.467,3.458 -20.467,10.725 0,2.033 5.418,23.385 22.996,43.136 C -27.373,-16.285 -15.63,-6.733 0,0" /></g><g
                 id="g230"
                 transform="translate(197.5244,303.606)"><path
                   id="path228"
                   style="fill:#d2d9dd;fill-opacity:1;fill-rule:nonzero;stroke:none"
                   d="M 0,0 C 13.332,5.718 29.534,9.438 49.184,9.083 54.884,8.982 60.328,8.54 66.484,7.74 67.872,7.559 68.617,4.603 66.928,2.408 66.273,1.557 65.313,0.78 63.852,0.369 61.644,-0.25 59.143,-0.743 56.322,-0.836 34.839,-1.623 18.569,-7.466 6.584,-18.167 0.463,-23.633 -4.541,-30.365 -8.551,-38.328 c -4.189,-8.313 -7.296,-17.961 -9.46,-28.899 -0.194,-0.98 -0.455,-1.937 -0.768,-2.873 -2.221,-6.608 -12.137,-9.546 -19.854,-9.701 -10.363,-0.176 -20.46,3.457 -20.461,10.715 0,2.02 5.437,23.405 23.052,43.171 C -27.43,-16.268 -15.661,-6.716 0,0" /></g><g
                 id="g234"
                 transform="translate(197.6836,303.6411)"><path
                   id="path232"
                   style="fill:#d1d8dc;fill-opacity:1;fill-rule:nonzero;stroke:none"
                   d="M 0,0 C 13.315,5.685 29.482,9.373 49.075,9.01 54.756,8.908 60.197,8.465 66.334,7.668 67.708,7.489 68.445,4.515 66.72,2.332 66.056,1.491 65.084,0.726 63.613,0.331 61.388,-0.266 58.885,-0.742 56.076,-0.838 34.615,-1.64 18.362,-7.497 6.389,-18.193 0.271,-23.661 -4.731,-30.388 -8.74,-38.343 c -4.192,-8.311 -7.299,-17.953 -9.465,-28.88 -0.194,-0.98 -0.452,-1.937 -0.761,-2.874 -2.185,-6.619 -12.055,-9.571 -19.814,-9.73 -10.35,-0.179 -20.453,3.456 -20.453,10.705 0,2.007 5.454,23.425 23.107,43.207 C -27.488,-16.251 -15.692,-6.7 0,0" /></g><g
                 id="g238"
                 transform="translate(197.8428,303.6758)"><path
                   id="path236"
                   style="fill:#d0d7db;fill-opacity:1;fill-rule:nonzero;stroke:none"
                   d="M 0,0 C 13.297,5.652 29.431,9.308 48.967,8.938 54.628,8.833 60.067,8.392 66.184,7.597 67.542,7.42 68.271,4.427 66.513,2.257 65.839,1.426 64.856,0.674 63.374,0.294 61.134,-0.28 58.627,-0.74 55.83,-0.838 34.392,-1.656 18.155,-7.526 6.193,-18.22 0.078,-23.688 -4.921,-30.411 -8.929,-38.357 c -4.194,-8.31 -7.302,-17.947 -9.469,-28.863 -0.195,-0.978 -0.451,-1.935 -0.754,-2.875 -2.152,-6.629 -11.975,-9.594 -19.775,-9.757 -10.338,-0.182 -20.447,3.456 -20.447,10.696 0,1.995 5.474,23.444 23.164,43.242 C -27.546,-16.233 -15.722,-6.683 0,0" /></g><g
                 id="g242"
                 transform="translate(198.002,303.7109)"><path
                   id="path240"
                   style="fill:#cfd6db;fill-opacity:1;fill-rule:nonzero;stroke:none"
                   d="M 0,0 C 13.28,5.619 29.38,9.242 48.859,8.865 54.499,8.758 59.937,8.317 66.033,7.525 67.378,7.35 68.099,4.338 66.306,2.181 65.624,1.36 64.629,0.621 63.136,0.256 60.878,-0.294 58.369,-0.739 55.584,-0.84 34.167,-1.673 17.949,-7.558 5.998,-18.247 c -6.113,-5.468 -11.11,-12.189 -15.117,-20.125 -4.195,-8.309 -7.305,-17.94 -9.474,-28.844 -0.194,-0.977 -0.447,-1.935 -0.746,-2.877 -2.117,-6.638 -11.893,-9.619 -19.735,-9.784 -10.325,-0.186 -20.44,3.454 -20.441,10.686 0,1.981 5.493,23.463 23.221,43.277 C -27.604,-16.218 -15.754,-6.666 0,0" /></g><g
                 id="g246"
                 transform="translate(198.1611,303.7461)"><path
                   id="path244"
                   style="fill:#ced6da;fill-opacity:1;fill-rule:nonzero;stroke:none"
                   d="M 0,0 C 13.262,5.585 29.328,9.176 48.751,8.792 54.371,8.684 59.806,8.243 65.883,7.453 67.213,7.28 67.927,4.249 66.099,2.105 65.407,1.294 64.4,0.568 62.896,0.219 60.623,-0.309 58.112,-0.739 55.338,-0.841 33.943,-1.689 17.743,-7.589 5.802,-18.273 c -6.11,-5.468 -11.104,-12.187 -15.11,-20.115 -4.198,-8.306 -7.309,-17.931 -9.478,-28.825 -0.195,-0.976 -0.445,-1.934 -0.739,-2.877 -2.083,-6.649 -11.813,-9.644 -19.696,-9.811 -10.312,-0.191 -20.433,3.453 -20.433,10.674 0,1.97 5.51,23.484 23.276,43.314 C -27.662,-16.2 -15.785,-6.648 0,0" /></g><g
                 id="g250"
                 transform="translate(198.3198,303.7808)"><path
                   id="path248"
                   style="fill:#cdd5d9;fill-opacity:1;fill-rule:nonzero;stroke:none"
                   d="M 0,0 C 13.244,5.553 29.277,9.111 48.643,8.72 54.243,8.609 59.676,8.169 65.733,7.382 67.048,7.21 67.756,4.16 65.892,2.03 65.191,1.229 64.173,0.516 62.659,0.182 60.369,-0.323 57.854,-0.738 55.093,-0.841 33.72,-1.706 17.537,-7.619 5.607,-18.299 -0.5,-23.768 -5.492,-30.483 -9.496,-38.403 c -4.201,-8.304 -7.313,-17.924 -9.484,-28.805 -0.195,-0.976 -0.442,-1.936 -0.732,-2.878 -2.047,-6.66 -11.731,-9.67 -19.656,-9.84 -10.299,-0.194 -20.425,3.452 -20.426,10.665 0,1.956 5.529,23.503 23.332,43.348 C -27.72,-16.183 -15.815,-6.631 0,0" /></g><g
                 id="g254"
                 transform="translate(198.4795,303.8154)"><path
                   id="path252"
                   style="fill:#ccd4d8;fill-opacity:1;fill-rule:nonzero;stroke:none"
                   d="M 0,0 C 13.226,5.52 29.225,9.046 48.535,8.647 54.114,8.534 59.545,8.096 65.582,7.311 66.883,7.142 67.583,4.072 65.684,1.955 64.973,1.162 63.945,0.464 62.42,0.145 60.113,-0.337 57.597,-0.736 54.846,-0.842 33.496,-1.722 17.33,-7.648 5.411,-18.326 -0.692,-23.795 -5.683,-30.507 -9.686,-38.417 c -4.203,-8.303 -7.316,-17.918 -9.488,-28.788 -0.195,-0.975 -0.44,-1.934 -0.725,-2.879 -2.013,-6.669 -11.65,-9.693 -19.617,-9.867 -10.287,-0.197 -20.418,3.451 -20.419,10.655 0,1.943 5.548,23.523 23.388,43.384 C -27.778,-16.166 -15.847,-6.614 0,0" /></g><g
                 id="g258"
                 transform="translate(198.6387,303.8506)"><path
                   id="path256"
                   style="fill:#cbd3d8;fill-opacity:1;fill-rule:nonzero;stroke:none"
                   d="M 0,0 C 13.209,5.488 29.173,8.98 48.427,8.575 53.986,8.459 59.414,8.021 65.432,7.239 66.718,7.071 67.411,3.981 65.477,1.878 64.757,1.096 63.717,0.411 62.181,0.107 59.858,-0.352 57.338,-0.735 54.6,-0.843 33.272,-1.739 17.123,-7.68 5.215,-18.353 c -6.1,-5.469 -11.088,-12.177 -15.09,-20.08 -4.205,-8.3 -7.319,-17.91 -9.493,-28.768 -0.195,-0.975 -0.438,-1.934 -0.717,-2.88 -1.979,-6.679 -11.569,-9.718 -19.577,-9.896 -10.275,-0.2 -20.412,3.451 -20.413,10.646 0,1.931 5.566,23.542 23.444,43.419 C -27.836,-16.148 -15.878,-6.597 0,0" /></g><g
                 id="g262"
                 transform="translate(198.7979,303.8853)"><path
                   id="path260"
                   style="fill:#cad2d7;fill-opacity:1;fill-rule:nonzero;stroke:none"
                   d="M 0,0 C 13.191,5.455 29.121,8.915 48.318,8.502 53.857,8.385 59.284,7.947 65.281,7.168 66.553,7.001 67.239,3.892 65.27,1.803 64.541,1.03 63.489,0.358 61.942,0.069 59.603,-0.367 57.081,-0.734 54.354,-0.843 33.048,-1.755 16.917,-7.709 5.02,-18.379 c -6.098,-5.47 -11.083,-12.175 -15.083,-20.069 -4.208,-8.298 -7.324,-17.902 -9.499,-28.75 -0.195,-0.972 -0.435,-1.933 -0.71,-2.881 -1.944,-6.688 -11.488,-9.743 -19.538,-9.922 -10.261,-0.205 -20.405,3.45 -20.405,10.635 0,1.918 5.584,23.562 23.5,43.454 C -27.895,-16.131 -15.909,-6.58 0,0" /></g><g
                 id="g266"
                 transform="translate(198.957,303.9199)"><path
                   id="path264"
                   style="fill:#c9d1d6;fill-opacity:1;fill-rule:nonzero;stroke:none"
                   d="M 0,0 C 13.174,5.423 29.069,8.849 48.21,8.43 53.729,8.311 59.153,7.874 65.131,7.097 66.388,6.932 67.067,3.803 65.062,1.728 64.324,0.965 63.261,0.306 61.704,0.032 59.348,-0.381 56.823,-0.732 54.108,-0.844 32.825,-1.771 16.71,-7.74 4.824,-18.405 c -6.095,-5.471 -11.078,-12.172 -15.077,-20.057 -4.209,-8.297 -7.327,-17.895 -9.503,-28.731 -0.195,-0.973 -0.432,-1.933 -0.703,-2.883 -1.909,-6.698 -11.406,-9.767 -19.498,-9.95 -10.249,-0.207 -20.397,3.449 -20.398,10.626 0,1.905 5.603,23.581 23.556,43.49 C -27.953,-16.114 -15.941,-6.562 0,0" /></g><g
                 id="g270"
                 transform="translate(199.1157,303.9551)"><path
                   id="path268"
                   style="fill:#c8d1d5;fill-opacity:1;fill-rule:nonzero;stroke:none"
                   d="M 0,0 C 13.157,5.391 29.019,8.783 48.103,8.357 53.601,8.236 59.023,7.799 64.981,7.025 66.223,6.862 66.896,3.712 64.855,1.652 64.108,0.898 63.034,0.253 61.465,-0.005 59.094,-0.396 56.566,-0.732 53.863,-0.845 32.602,-1.788 16.503,-7.771 4.629,-18.432 c -6.092,-5.47 -11.073,-12.17 -15.07,-20.046 -4.212,-8.294 -7.331,-17.887 -9.509,-28.712 -0.195,-0.972 -0.429,-1.932 -0.695,-2.883 -1.875,-6.709 -11.325,-9.792 -19.458,-9.979 -10.236,-0.21 -20.392,3.449 -20.392,10.616 0,1.893 5.621,23.601 23.612,43.526 C -28.01,-16.098 -15.972,-6.544 0,0" /></g><g
                 id="g274"
                 transform="translate(199.2749,303.9902)"><path
                   id="path272"
                   style="fill:#c8d0d5;fill-opacity:1;fill-rule:nonzero;stroke:none"
                   d="M 0,0 C 13.139,5.358 28.967,8.718 47.995,8.285 53.473,8.161 58.892,7.725 64.831,6.953 66.059,6.792 66.725,3.622 64.648,1.576 63.892,0.832 62.806,0.2 61.227,-0.043 58.839,-0.41 56.308,-0.731 53.617,-0.846 32.378,-1.805 16.297,-7.802 4.434,-18.459 -1.655,-23.93 -6.634,-30.626 -10.63,-38.492 c -4.214,-8.294 -7.335,-17.882 -9.513,-28.695 -0.196,-0.97 -0.428,-1.932 -0.689,-2.884 -1.839,-6.719 -11.244,-9.816 -19.418,-10.005 -10.224,-0.215 -20.384,3.447 -20.385,10.605 0,1.88 5.639,23.62 23.668,43.561 C -28.068,-16.081 -16.003,-6.527 0,0" /></g><g
                 id="g278"
                 transform="translate(199.4341,304.0249)"><path
                   id="path276"
                   style="fill:#c6cfd4;fill-opacity:1;fill-rule:nonzero;stroke:none"
                   d="M 0,0 C 13.121,5.326 28.915,8.653 47.887,8.212 53.344,8.086 58.761,7.651 64.68,6.882 65.894,6.723 66.553,3.532 64.44,1.501 63.675,0.766 62.578,0.148 60.988,-0.08 58.583,-0.424 56.05,-0.729 53.371,-0.846 32.154,-1.821 16.09,-7.832 4.238,-18.485 c -6.086,-5.472 -11.063,-12.164 -15.057,-20.021 -4.217,-8.292 -7.338,-17.875 -9.518,-28.676 -0.196,-0.971 -0.425,-1.932 -0.681,-2.887 -1.806,-6.727 -11.164,-9.84 -19.379,-10.032 -10.211,-0.218 -20.378,3.446 -20.378,10.596 0,1.867 5.658,23.639 23.724,43.595 C -28.126,-16.063 -16.034,-6.509 0,0" /></g><g
                 id="g282"
                 transform="translate(199.5933,304.0601)"><path
                   id="path280"
                   style="fill:#c6cfd4;fill-opacity:1;fill-rule:nonzero;stroke:none"
                   d="M 0,0 C 13.104,5.294 28.864,8.587 47.779,8.14 53.216,8.012 58.631,7.577 64.53,6.81 65.729,6.653 66.381,3.441 64.233,1.425 63.459,0.699 62.35,0.095 60.75,-0.118 58.329,-0.439 55.792,-0.729 53.125,-0.848 31.93,-1.838 15.884,-7.863 4.042,-18.512 c -6.083,-5.472 -11.057,-12.161 -15.05,-20.01 -4.219,-8.29 -7.342,-17.867 -9.523,-28.657 -0.196,-0.97 -0.423,-1.931 -0.674,-2.887 -1.771,-6.738 -11.082,-9.864 -19.339,-10.06 -10.199,-0.222 -20.371,3.445 -20.372,10.585 0,1.855 5.677,23.661 23.781,43.632 C -28.185,-16.046 -16.066,-6.491 0,0" /></g><g
                 id="g286"
                 transform="translate(199.7524,304.0947)"><path
                   id="path284"
                   style="fill:#c6ced3;fill-opacity:1;fill-rule:nonzero;stroke:none"
                   d="M 0,0 C 13.085,5.262 28.812,8.521 47.67,8.067 53.088,7.938 58.5,7.503 64.38,6.739 65.564,6.584 66.209,3.35 64.026,1.35 63.243,0.633 62.122,0.043 60.511,-0.155 58.074,-0.453 55.535,-0.728 52.879,-0.848 31.707,-1.854 15.677,-7.894 3.847,-18.539 c -6.08,-5.471 -11.053,-12.157 -15.044,-19.998 -4.221,-8.287 -7.345,-17.859 -9.528,-28.638 -0.196,-0.969 -0.42,-1.931 -0.666,-2.888 -1.737,-6.748 -11.002,-9.89 -19.3,-10.088 -10.186,-0.225 -20.364,3.444 -20.365,10.576 0,1.841 5.695,23.679 23.837,43.667 C -28.243,-16.029 -16.097,-6.473 0,0" /></g><g
                 id="g290"
                 transform="translate(199.9111,304.1299)"><path
                   id="path288"
                   style="fill:#c4cdd2;fill-opacity:1;fill-rule:nonzero;stroke:none"
                   d="M 0,0 C 13.068,5.23 28.761,8.456 47.563,7.994 52.96,7.863 58.37,7.429 64.229,6.667 65.399,6.514 66.039,3.26 63.819,1.274 63.027,0.566 61.894,-0.01 60.272,-0.192 57.819,-0.468 55.277,-0.727 52.633,-0.849 31.483,-1.871 15.471,-7.924 3.651,-18.565 c -6.077,-5.472 -11.046,-12.156 -15.037,-19.987 -4.223,-8.286 -7.349,-17.852 -9.532,-28.62 -0.197,-0.967 -0.418,-1.931 -0.659,-2.889 -1.702,-6.757 -10.92,-9.914 -19.261,-10.116 -10.174,-0.228 -20.357,3.445 -20.357,10.567 0,1.829 5.713,23.699 23.892,43.701 C -28.3,-16.013 -16.128,-6.455 0,0" /></g><g
                 id="g294"
                 transform="translate(200.0703,304.165)"><path
                   id="path292"
                   style="fill:#c3ccd1;fill-opacity:1;fill-rule:nonzero;stroke:none"
                   d="M 0,0 C 13.04,5.223 28.709,8.39 47.455,7.921 52.832,7.788 58.24,7.354 64.079,6.595 65.234,6.444 65.867,3.168 63.611,1.198 62.811,0.5 61.667,-0.063 60.034,-0.23 57.564,-0.482 55.02,-0.726 52.388,-0.851 31.26,-1.888 15.265,-7.955 3.456,-18.592 c -6.074,-5.472 -11.042,-12.153 -15.031,-19.975 -4.225,-8.285 -7.353,-17.845 -9.537,-28.601 -0.197,-0.967 -0.416,-1.931 -0.652,-2.891 -1.667,-6.767 -10.84,-9.938 -19.221,-10.143 -10.161,-0.232 -20.35,3.443 -20.35,10.556 0,1.816 5.731,23.719 23.948,43.738 C -28.358,-15.995 -16.172,-6.406 0,0" /></g><g
                 id="g298"
                 transform="translate(200.2295,304.1997)"><path
                   id="path296"
                   style="fill:#c2cbd0;fill-opacity:1;fill-rule:nonzero;stroke:none"
                   d="M 0,0 C 13.022,5.189 28.658,8.325 47.347,7.849 52.703,7.713 58.109,7.28 63.929,6.524 65.069,6.375 65.697,3.076 63.404,1.123 62.595,0.433 61.438,-0.115 59.795,-0.267 57.309,-0.497 54.762,-0.724 52.142,-0.851 31.035,-1.904 15.058,-7.985 3.261,-18.619 c -6.072,-5.472 -11.037,-12.149 -15.025,-19.964 -4.227,-8.282 -7.356,-17.836 -9.542,-28.581 -0.196,-0.966 -0.413,-1.93 -0.645,-2.891 -1.632,-6.778 -10.757,-9.963 -19.181,-10.172 -10.148,-0.235 -20.344,3.442 -20.344,10.547 0,1.803 5.751,23.738 24.005,43.772 C -28.417,-15.978 -16.203,-6.389 0,0" /></g><g
                 id="g302"
                 transform="translate(200.3887,304.2349)"><path
                   id="path300"
                   style="fill:#c1cacf;fill-opacity:1;fill-rule:nonzero;stroke:none"
                   d="M 0,0 C 13.006,5.155 28.606,8.259 47.239,7.776 52.575,7.639 57.979,7.206 63.778,6.452 64.904,6.305 65.525,2.984 63.197,1.047 62.378,0.366 61.21,-0.168 59.556,-0.305 57.054,-0.511 54.504,-0.724 51.896,-0.852 30.812,-1.921 14.852,-8.015 3.064,-18.645 c -6.067,-5.474 -11.03,-12.147 -15.017,-19.952 -4.23,-8.281 -7.36,-17.83 -9.547,-28.564 -0.197,-0.964 -0.411,-1.929 -0.637,-2.892 -1.598,-6.788 -10.677,-9.988 -19.142,-10.198 -10.136,-0.24 -20.336,3.441 -20.337,10.536 0,1.79 5.769,23.757 24.061,43.807 C -28.475,-15.961 -16.233,-6.374 0,0" /></g><g
                 id="g306"
                 transform="translate(200.5479,304.2695)"><path
                   id="path304"
                   style="fill:#c0c9ce;fill-opacity:1;fill-rule:nonzero;stroke:none"
                   d="M 0,0 C 12.989,5.122 28.555,8.194 47.13,7.704 52.446,7.564 57.848,7.132 63.628,6.381 64.739,6.236 65.354,2.892 62.989,0.972 62.162,0.299 60.983,-0.22 59.317,-0.342 56.799,-0.525 54.246,-0.722 51.65,-0.853 30.588,-1.937 14.645,-8.046 2.869,-18.671 c -6.065,-5.475 -11.026,-12.144 -15.011,-19.941 -4.232,-8.28 -7.363,-17.824 -9.552,-28.544 -0.197,-0.965 -0.408,-1.93 -0.63,-2.895 -1.563,-6.797 -10.595,-10.012 -19.102,-10.225 -10.123,-0.243 -20.33,3.44 -20.33,10.526 0,1.777 5.787,23.777 24.117,43.843 C -28.533,-15.944 -16.264,-6.357 0,0" /></g><g
                 id="g310"
                 transform="translate(200.707,304.3047)"><path
                   id="path308"
                   style="fill:#bfc8ce;fill-opacity:1;fill-rule:nonzero;stroke:none"
                   d="M 0,0 C 12.972,5.087 28.503,8.128 47.022,7.631 52.318,7.489 57.718,7.058 63.478,6.31 64.575,6.166 65.183,2.8 62.783,0.896 61.945,0.232 60.755,-0.273 59.079,-0.379 56.544,-0.54 53.989,-0.722 51.404,-0.854 30.364,-1.954 14.438,-8.076 2.673,-18.698 c -6.062,-5.474 -11.02,-12.142 -15.004,-19.929 -4.234,-8.277 -7.367,-17.816 -9.557,-28.526 -0.196,-0.963 -0.405,-1.929 -0.623,-2.895 -1.529,-6.807 -10.514,-10.037 -19.062,-10.254 -10.111,-0.246 -20.323,3.44 -20.323,10.517 0,1.764 5.806,23.798 24.172,43.878 C -28.591,-15.927 -16.294,-6.342 0,0" /></g><g
                 id="g314"
                 transform="translate(200.8662,304.3389)"><path
                   id="path312"
                   style="fill:#bec8cd;fill-opacity:1;fill-rule:nonzero;stroke:none"
                   d="M 0,0 C 12.955,5.054 28.451,8.063 46.914,7.559 52.19,7.416 57.587,6.984 63.328,6.238 64.41,6.097 65.011,2.708 62.575,0.821 61.729,0.166 60.527,-0.325 58.84,-0.416 56.289,-0.554 53.73,-0.72 51.158,-0.854 30.14,-1.97 14.232,-8.106 2.478,-18.724 c -6.06,-5.474 -11.016,-12.138 -14.998,-19.918 -4.237,-8.275 -7.371,-17.808 -9.561,-28.506 -0.198,-0.963 -0.403,-1.929 -0.616,-2.897 -1.494,-6.816 -10.434,-10.06 -19.023,-10.281 -10.098,-0.25 -20.316,3.438 -20.317,10.507 0,1.752 5.825,23.816 24.229,43.914 C -28.648,-15.909 -16.325,-6.325 0,0" /></g><g
                 id="g318"
                 transform="translate(201.0254,304.374)"><path
                   id="path316"
                   style="fill:#bdc7cc;fill-opacity:1;fill-rule:nonzero;stroke:none"
                   d="M 0,0 C 12.938,5.02 28.399,7.998 46.806,7.486 52.062,7.341 57.456,6.91 63.177,6.167 64.245,6.027 64.84,2.615 62.368,0.746 c -0.856,-0.647 -2.069,-1.124 -3.766,-1.2 -2.568,-0.114 -5.129,-0.265 -7.69,-0.4 -20.995,-1.132 -36.887,-7.283 -48.63,-17.897 -6.056,-5.475 -11.01,-12.136 -14.991,-19.905 -4.239,-8.275 -7.374,-17.802 -9.566,-28.49 -0.198,-0.961 -0.401,-1.927 -0.609,-2.896 -1.46,-6.827 -10.352,-10.086 -18.983,-10.31 -10.086,-0.252 -20.309,3.439 -20.309,10.498 0,1.739 5.843,23.835 24.284,43.949 C -28.707,-15.893 -16.355,-6.309 0,0" /></g><g
                 id="g322"
                 transform="translate(201.1846,304.4092)"><path
                   id="path320"
                   style="fill:#bdc7cc;fill-opacity:1;fill-rule:nonzero;stroke:none"
                   d="M 0,0 C 12.92,4.986 28.348,7.932 46.698,7.413 51.933,7.266 57.325,6.836 63.026,6.095 64.08,5.958 64.669,2.522 62.161,0.669 61.296,0.031 60.071,-0.431 58.363,-0.491 55.779,-0.583 53.215,-0.718 50.666,-0.855 29.693,-2.003 13.819,-8.168 2.087,-18.777 c -6.054,-5.476 -11.005,-12.134 -14.985,-19.895 -4.241,-8.271 -7.378,-17.794 -9.571,-28.47 -0.198,-0.961 -0.399,-1.927 -0.601,-2.898 -1.426,-6.837 -10.272,-10.109 -18.945,-10.337 -10.072,-0.256 -20.301,3.438 -20.302,10.487 0,1.727 5.861,23.856 24.341,43.985 C -28.765,-15.876 -16.386,-6.293 0,0" /></g><g
                 id="g326"
                 transform="translate(201.3438,304.4438)"><path
                   id="path324"
                   style="fill:#bcc6cb;fill-opacity:1;fill-rule:nonzero;stroke:none"
                   d="M 0,0 C 12.904,4.952 28.296,7.867 46.59,7.341 51.805,7.191 57.195,6.762 62.876,6.024 63.915,5.888 64.498,2.43 61.953,0.594 61.08,-0.036 59.843,-0.483 58.125,-0.529 55.524,-0.598 52.958,-0.717 50.42,-0.856 29.469,-2.02 13.612,-8.198 1.891,-18.804 c -6.05,-5.476 -10.999,-12.13 -14.978,-19.882 -4.244,-8.271 -7.382,-17.788 -9.576,-28.452 -0.198,-0.96 -0.396,-1.927 -0.594,-2.899 -1.39,-6.847 -10.19,-10.134 -18.904,-10.364 -10.06,-0.261 -20.295,3.436 -20.296,10.477 0,1.713 5.88,23.876 24.397,44.019 C -28.823,-15.858 -16.417,-6.277 0,0" /></g><g
                 id="g330"
                 transform="translate(201.5024,304.479)"><path
                   id="path328"
                   style="fill:#bbc5cb;fill-opacity:1;fill-rule:nonzero;stroke:none"
                   d="M 0,0 C 12.887,4.918 28.245,7.801 46.482,7.268 51.677,7.117 57.065,6.688 62.727,5.952 63.75,5.818 64.327,2.336 61.746,0.519 60.864,-0.103 59.615,-0.536 57.886,-0.566 55.269,-0.612 52.7,-0.716 50.175,-0.857 29.246,-2.037 13.406,-8.229 1.696,-18.831 c -6.048,-5.475 -10.995,-12.127 -14.971,-19.871 -4.246,-8.268 -7.386,-17.779 -9.581,-28.432 -0.199,-0.96 -0.394,-1.927 -0.587,-2.901 -1.356,-6.857 -10.109,-10.159 -18.865,-10.391 -10.047,-0.264 -20.288,3.434 -20.289,10.467 0,1.7 5.898,23.895 24.453,44.055 C -28.88,-15.841 -16.446,-6.261 0,0" /></g><g
                 id="g334"
                 transform="translate(201.6616,304.5137)"><path
                   id="path332"
                   style="fill:#bac4ca;fill-opacity:1;fill-rule:nonzero;stroke:none"
                   d="M 0,0 C 12.87,4.885 28.194,7.736 46.375,7.196 51.549,7.042 56.934,6.614 62.576,5.881 63.585,5.749 64.155,2.242 61.539,0.443 60.647,-0.17 59.388,-0.588 57.647,-0.604 55.015,-0.626 52.442,-0.715 49.929,-0.858 29.022,-2.053 13.2,-8.259 1.5,-18.857 c -6.044,-5.476 -10.989,-12.124 -14.965,-19.86 -4.248,-8.265 -7.389,-17.772 -9.585,-28.414 -0.198,-0.958 -0.391,-1.926 -0.579,-2.9 -1.322,-6.867 -10.029,-10.184 -18.826,-10.42 -10.035,-0.267 -20.281,3.434 -20.281,10.457 0,1.687 5.916,23.915 24.508,44.091 C -28.939,-15.824 -16.478,-6.245 0,0" /></g><g
                 id="g338"
                 transform="translate(264.2466,310.3579)"><path
                   id="path336"
                   style="fill:#bac3c9;fill-opacity:1;fill-rule:nonzero;stroke:none"
                   d="m 0,0 c -25.391,3.3 -45.917,0.42 -62.426,-5.809 -16.508,-6.23 -28.996,-15.808 -38.312,-25.903 -18.63,-20.192 -24.565,-42.452 -24.565,-44.126 0,-13.2 36.314,-14.674 39.061,0 4.109,21.935 12.034,39.282 25.121,51.145 C -48.032,-12.83 -29.78,-6.45 -5.017,-6.45 1.892,-6.45 1.332,-0.174 0,0" /></g></g></g></g></g></g><g
       transform="matrix(1.483321,0,0,1.483321,-201.84926,-141.93405)"
       id="g344"><g
         id="g346"><g
           id="g352"><g
             id="g354"><path
               id="path370"
               style="fill:url(#linearGradient368);stroke:none"
               d="m 137.481,296.973 v -62.816 c 0,-14.468 40.374,-14.468 40.374,0 v 0 l -0.005,64.968 c 0,26.699 16.825,46.758 40.359,47.326 v 0 c 18.602,0.449 33.627,-9.056 33.627,-36.097 v 0 c 0,-6.789 13.45,-6.789 13.45,0 v 0 c 0,45.684 -25.335,61.614 -57.168,61.614 v 0 c -29.769,0 -70.606,-18.101 -70.637,-74.995" /></g></g></g></g><g
       transform="matrix(1.483321,0,0,1.483321,-201.84926,-141.93405)"
       id="g372"><g
         clip-path="url(#clipPath378)"
         id="g374"><g
           transform="translate(287.2202,272.5098)"
           id="g380"><path
             id="path382"
             style="fill:#516670;fill-opacity:1;fill-rule:nonzero;stroke:none"
             d="m 0,0 c 0,6.578 -6.029,9.383 -18.083,9.383 -2.536,0 -8.561,-0.176 -10.731,-0.35 v -19.734 c 1.927,-0.086 8.678,-0.26 10.731,-0.26 C -5.664,-10.961 0,-8.502 0,-0.785 Z M 18.087,-46.045 H 3.376 c -1.323,0 -1.806,0.881 -2.41,1.76 l -17.361,23.41 h -1.688 c -3.136,0 -7.96,0.266 -10.731,0.354 v -23.764 c 0,-0.965 -0.966,-1.76 -2.293,-1.76 h -12.058 c -1.327,0 -2.41,0.795 -2.41,1.76 v 60.338 c 0,1.75 1.445,2.363 3.859,2.629 6.268,0.699 14.829,1.138 23.633,1.138 18.566,0 34.726,-4.822 34.726,-19.82 v -0.785 c 0,-9.297 -6.394,-15.09 -16.278,-17.893 l 18.927,-25.607 c 0.605,-0.879 0.123,-1.76 -1.205,-1.76" /></g><g
           transform="translate(369.9468,226.9922)"
           id="g384"><path
             id="path386"
             style="fill:#516670;fill-opacity:1;fill-rule:nonzero;stroke:none"
             d="m 0,0 c -3.858,-0.439 -8.561,-1.225 -22.907,-1.225 -15.677,0 -27.853,3.071 -27.853,17.977 v 30.609 c 0,14.909 12.176,17.977 27.853,17.977 14.346,0 19.049,-0.789 22.907,-1.223 1.81,-0.181 2.415,-0.617 2.415,-1.845 V 56.656 C 2.415,55.691 1.328,54.9 0,54.9 h -24.595 c -6.994,0 -9.526,-1.754 -9.526,-7.539 v -9.474 h 32.678 c 1.326,0 2.409,-0.787 2.409,-1.75 v -6.313 c 0,-0.967 -1.083,-1.758 -2.409,-1.758 H -34.121 V 16.752 c 0,-5.783 2.532,-7.543 9.526,-7.543 H 0 c 1.328,0 2.415,-0.785 2.415,-1.752 V 1.846 C 2.415,0.613 1.81,0.182 0,0" /></g><g
           transform="translate(438.2021,227.1738)"
           id="g388"><path
             id="path390"
             style="fill:#516670;fill-opacity:1;fill-rule:nonzero;stroke:none"
             d="m 0,0 c -1.811,-0.354 -9.766,-1.406 -19.053,-1.406 -14.468,0 -34.122,5.174 -34.122,26.834 v 12.896 c 0,22.01 19.654,26.832 34.122,26.832 9.287,0 17.242,-1.051 19.053,-1.404 1.564,-0.346 2.653,-0.785 2.653,-2.014 v -5.875 c 0,-1.144 -0.727,-1.931 -2.653,-1.845 -4.22,0.267 -12.42,0.701 -18.81,0.701 -10.131,0 -17.486,-3.944 -17.486,-16.395 V 25.428 c 0,-12.194 7.355,-16.401 17.486,-16.401 6.39,0 14.59,0.44 18.81,0.707 C 1.926,9.818 2.653,9.027 2.653,7.889 V 2.008 C 2.653,0.783 1.564,0.344 0,0" /></g><g
           transform="translate(499.7051,272.5098)"
           id="g392"><path
             id="path394"
             style="fill:#516670;fill-opacity:1;fill-rule:nonzero;stroke:none"
             d="m 0,0 c 0,6.578 -6.028,9.383 -18.087,9.383 -2.531,0 -8.56,-0.176 -10.73,-0.35 v -19.734 c 1.929,-0.086 8.681,-0.26 10.73,-0.26 C -5.667,-10.961 0,-8.502 0,-0.785 Z M 18.089,-46.045 H 3.376 c -1.326,0 -1.81,0.881 -2.41,1.76 l -17.365,23.41 h -1.688 c -3.136,0 -7.957,0.266 -10.73,0.354 v -23.764 c 0,-0.965 -0.967,-1.76 -2.294,-1.76 h -12.054 c -1.326,0 -2.414,0.795 -2.414,1.76 v 60.338 c 0,1.75 1.449,2.363 3.859,2.629 6.272,0.699 14.832,1.138 23.633,1.138 C 0.483,19.82 16.64,14.998 16.64,0 v -0.785 c 0,-9.297 -6.391,-15.09 -16.278,-17.893 l 18.931,-25.607 c 0.601,-0.879 0.12,-1.76 -1.204,-1.76" /></g><g
           transform="translate(589.042,227.2598)"
           id="g396"><path
             id="path398"
             style="fill:#516670;fill-opacity:1;fill-rule:nonzero;stroke:none"
             d="m 0,0 c -4.22,-0.439 -19.414,-1.492 -26.77,-1.492 -19.41,0 -32.916,5.957 -32.916,24.642 v 39.553 c 0,0.963 1.086,1.67 2.411,1.67 h 11.94 c 1.325,0 2.409,-0.707 2.409,-1.67 V 23.15 c 0,-10.002 3.137,-14.554 16.156,-14.554 4.825,0 12.18,0.345 16.639,0.699 v 53.408 c 0,0.963 0.967,1.67 2.293,1.67 H 4.098 c 1.327,0 2.414,-0.707 2.414,-1.67 V 5.346 C 6.512,1.664 4.342,0.439 0,0" /></g><g
           transform="translate(626.7959,226.4648)"
           id="g400"><path
             id="path402"
             style="fill:#516670;fill-opacity:1;fill-rule:nonzero;stroke:none"
             d="m 0,0 h -11.938 c -1.328,0 -2.414,0.795 -2.414,1.76 v 61.738 c 0,0.963 1.086,1.67 2.414,1.67 H 0 c 1.324,0 2.408,-0.707 2.408,-1.67 V 1.76 C 2.408,0.795 1.324,0 0,0" /></g><g
           transform="translate(702.001,281.459)"
           id="g404"><path
             id="path406"
             style="fill:#516670;fill-opacity:1;fill-rule:nonzero;stroke:none"
             d="m 0,0 h -21.102 v -53.234 c 0,-0.965 -1.084,-1.76 -2.41,-1.76 h -11.935 c -1.328,0 -2.416,0.795 -2.416,1.76 V 0 h -21.098 c -1.326,0 -2.412,0.611 -2.412,1.578 v 6.926 c 0,0.963 1.086,1.67 2.412,1.67 H 0 c 1.326,0 2.408,-0.707 2.408,-1.67 V 1.578 C 2.408,0.611 1.326,0 0,0" /></g></g></g></g></svg>
