<?xml version="1.0" encoding="utf-8"?>
<!-- Generator: Adobe Illustrator 24.0.0, SVG Export Plug-In . SVG Version: 6.00 Build 0)  -->
<svg version="1.1" id="Layer_1" xmlns="http://www.w3.org/2000/svg" xmlns:xlink="http://www.w3.org/1999/xlink" x="0px" y="0px"
	 viewBox="0 0 439.983 142.605" style="enable-background:new 0 0 439.983 142.605;" xml:space="preserve">
<style type="text/css">
	.st0{fill:#FFFFFF;}
	.st1{fill:#64A70B;}
	.st2{enable-background:new    ;}
	.st3{fill:#383A35;}
</style>
<path class="st0" d="M123.105,142.605H19.5c-10.77,0-19.5-8.73-19.5-19.5V19.5C0,8.73,8.73,0,19.5,0h103.605
	c10.77,0,19.5,8.73,19.5,19.5v103.605C142.605,133.875,133.875,142.605,123.105,142.605z"/>
<path id="icon_4_" class="st1" d="M19.446,0C8.673,0,0,8.673,0,19.446v103.713c0,9.363,6.555,17.133,15.342,19.008
	c1.7-14.531,4.707-33.874,9.959-53.391c-0.02-0.608-0.211-0.587-0.466-1.001c-0.364-0.599-0.373-1.821-0.373-1.821l11.675,1.969
	c-0.288,0.998-1.351,1.762-2.405,2.283c-4.954,20.231-8.163,39.391-10.041,52.4h99.467c10.773,0,19.446-8.673,19.446-19.446V58.103
	c-53.918,23.205-89.639,10.587-92.11,9.875c4.655-3.447,27.86-15.04,61.369-15.221c9.319-0.05,19.998,0.874,30.741,3.011V19.446
	c0-3.191-0.778-6.189-2.129-8.841C113.21,22.974,88.468,42.521,77.475,49.706C63.644,58.75,47.821,67.268,44.48,68.609
	c7.299-17.036,45.022-49.56,95.25-59.33C136.317,3.711,130.195,0,123.159,0H67.167C62.072,10.57,55.26,26.189,46.27,49.367
	c-3.342,8.61-6.278,17.713-8.85,26.83c0.754,1.317,0.828,1.726,0.578,3.025l-11.254-1.673c0.293-1.733,2.111-2.036,2.776-2.914
	c1.554-4.703,3.248-9.343,5.113-13.868C46.484,31.973,55.959,12.721,63.147,0H19.446z M57.267,72.161
	c9.404,0.15,22.14,2.851,34.843,12.68c11.012,8.52,21.966,24.491,24.356,29.642c0,0-9.554-15.156-28.168-18.235
	c-41.53-8.793-45.351-21.957-45.351-21.957C44.652,73.473,49.953,72.045,57.267,72.161z M26.144,80.258l11.47,1.811l-0.577,3.157
	l-11.733-1.948L26.144,80.258z"/>
<g transform="translate(177, 90)">
	<g class="st2">
		<path class="st3" d="M-3.945-0.249v-64.891h22.393c4.248,0,7.876,0.404,10.882,1.211c3.007,0.808,5.475,1.96,7.404,3.456
			c1.93,1.496,3.343,3.305,4.241,5.429c0.897,2.125,1.346,4.518,1.346,7.18c0,1.526-0.224,2.984-0.673,4.376
			c-0.449,1.391-1.144,2.693-2.087,3.904c-0.942,1.211-2.139,2.311-3.59,3.298c-1.452,0.987-3.179,1.825-5.183,2.513
			c8.915,2.005,13.374,6.821,13.374,14.45c0,2.753-0.524,5.295-1.571,7.629c-1.047,2.333-2.573,4.345-4.577,6.035
			c-2.005,1.691-4.473,3.015-7.404,3.971c-2.933,0.958-6.283,1.436-10.052,1.436H-3.945z M8.126-37.047h9.649
			c4.099,0,7.21-0.747,9.334-2.244c2.124-1.495,3.186-3.874,3.186-7.135c0-3.38-0.958-5.79-2.872-7.225
			c-1.915-1.436-4.907-2.154-8.975-2.154H8.126V-37.047z M8.126-28.7v19.027h12.251c2.244,0,4.121-0.269,5.632-0.807
			c1.51-0.539,2.722-1.256,3.635-2.154c0.913-0.898,1.571-1.945,1.975-3.142c0.404-1.196,0.606-2.468,0.606-3.814
			c0-1.406-0.224-2.67-0.673-3.792c-0.449-1.122-1.152-2.079-2.109-2.872c-0.958-0.793-2.184-1.398-3.68-1.818
			c-1.496-0.418-3.306-0.628-5.43-0.628H8.126z"/>
		<path class="st3" d="M117.667-0.249h-9.335c-1.047,0-1.907-0.262-2.58-0.785c-0.673-0.524-1.16-1.174-1.458-1.953l-4.847-13.238
			H72.567L67.72-2.986c-0.24,0.689-0.711,1.317-1.413,1.884c-0.704,0.569-1.564,0.853-2.581,0.853h-9.379l25.49-64.891h12.341
			L117.667-0.249z M75.663-24.751h20.689l-7.898-21.585c-0.36-0.957-0.757-2.087-1.19-3.388c-0.434-1.302-0.861-2.715-1.279-4.241
			c-0.42,1.526-0.831,2.947-1.234,4.264c-0.404,1.317-0.801,2.468-1.19,3.455L75.663-24.751z"/>
		<path class="st3" d="M165.235-53.337c-0.329,0.658-0.711,1.122-1.145,1.392c-0.433,0.269-0.95,0.404-1.547,0.404
			c-0.599,0-1.272-0.232-2.019-0.696c-0.749-0.464-1.632-0.98-2.649-1.547c-1.017-0.569-2.207-1.085-3.567-1.548
			c-1.361-0.464-2.969-0.695-4.824-0.695c-1.676,0-3.135,0.202-4.376,0.606c-1.242,0.403-2.29,0.964-3.142,1.683
			c-0.852,0.718-1.489,1.578-1.907,2.58c-0.42,1.003-0.628,2.103-0.628,3.298c0,1.526,0.427,2.798,1.279,3.815
			c0.852,1.018,1.982,1.884,3.388,2.603c1.406,0.718,3.007,1.361,4.801,1.929c1.796,0.569,3.628,1.174,5.498,1.817
			c1.869,0.644,3.702,1.392,5.496,2.244c1.796,0.853,3.395,1.93,4.801,3.231c1.406,1.301,2.536,2.894,3.389,4.78
			c0.853,1.884,1.279,4.173,1.279,6.866c0,2.932-0.502,5.677-1.503,8.234c-1.003,2.558-2.469,4.788-4.398,6.687
			c-1.93,1.901-4.286,3.396-7.068,4.488s-5.968,1.638-9.558,1.638c-2.065,0-4.099-0.202-6.103-0.606s-3.927-0.98-5.767-1.728
			c-1.839-0.747-3.56-1.645-5.16-2.693c-1.601-1.047-3.03-2.214-4.286-3.5l3.5-5.789c0.329-0.419,0.726-0.77,1.189-1.055
			s0.98-0.427,1.548-0.427c0.748,0,1.555,0.307,2.423,0.92c0.868,0.614,1.892,1.294,3.074,2.041c1.181,0.749,2.572,1.43,4.173,2.042
			c1.601,0.614,3.523,0.92,5.767,0.92c3.44,0,6.102-0.815,7.988-2.446c1.884-1.63,2.827-3.971,2.827-7.023
			c0-1.705-0.427-3.097-1.279-4.174c-0.853-1.077-1.983-1.981-3.389-2.714c-1.406-0.733-3.006-1.354-4.801-1.863
			c-1.796-0.508-3.621-1.062-5.475-1.66c-1.855-0.598-3.679-1.316-5.475-2.154c-1.795-0.837-3.395-1.929-4.801-3.275
			c-1.406-1.347-2.536-3.03-3.388-5.049c-0.852-2.02-1.279-4.51-1.279-7.472c0-2.363,0.471-4.667,1.413-6.911
			s2.319-4.233,4.128-5.969c1.809-1.734,4.032-3.125,6.665-4.173c2.631-1.047,5.639-1.571,9.02-1.571
			c3.829,0,7.359,0.599,10.59,1.795c3.231,1.197,5.983,2.872,8.257,5.026L165.235-53.337z"/>
		<path class="st3" d="M200.103-0.249h-12.117v-64.891h12.117V-0.249z"/>
		<path class="st3" d="M257.363-53.337c-0.329,0.658-0.711,1.122-1.144,1.392c-0.434,0.269-0.95,0.404-1.548,0.404
			c-0.598,0-1.272-0.232-2.019-0.696c-0.749-0.464-1.631-0.98-2.648-1.547c-1.017-0.569-2.207-1.085-3.568-1.548
			c-1.361-0.464-2.968-0.695-4.824-0.695c-1.676,0-3.135,0.202-4.376,0.606c-1.242,0.403-2.289,0.964-3.142,1.683
			c-0.852,0.718-1.488,1.578-1.907,2.58c-0.419,1.003-0.628,2.103-0.628,3.298c0,1.526,0.427,2.798,1.279,3.815
			c0.853,1.018,1.982,1.884,3.389,2.603c1.405,0.718,3.006,1.361,4.801,1.929c1.796,0.569,3.627,1.174,5.497,1.817
			c1.869,0.644,3.702,1.392,5.497,2.244c1.795,0.853,3.395,1.93,4.801,3.231c1.406,1.301,2.536,2.894,3.389,4.78
			c0.852,1.884,1.278,4.173,1.278,6.866c0,2.932-0.501,5.677-1.503,8.234c-1.002,2.558-2.469,4.788-4.398,6.687
			c-1.929,1.901-4.286,3.396-7.067,4.488c-2.783,1.092-5.969,1.638-9.559,1.638c-2.065,0-4.098-0.202-6.102-0.606
			c-2.005-0.404-3.927-0.98-5.767-1.728c-1.84-0.747-3.56-1.645-5.16-2.693c-1.6-1.047-3.03-2.214-4.286-3.5l3.5-5.789
			c0.329-0.419,0.726-0.77,1.19-1.055c0.464-0.284,0.98-0.427,1.548-0.427c0.747,0,1.554,0.307,2.423,0.92
			c0.867,0.614,1.891,1.294,3.074,2.041c1.182,0.749,2.573,1.43,4.174,2.042c1.6,0.614,3.522,0.92,5.766,0.92
			c3.441,0,6.103-0.815,7.989-2.446c1.883-1.63,2.826-3.971,2.826-7.023c0-1.705-0.427-3.097-1.279-4.174
			c-0.852-1.077-1.982-1.981-3.388-2.714c-1.406-0.733-3.007-1.354-4.801-1.863c-1.796-0.508-3.621-1.062-5.475-1.66
			c-1.856-0.598-3.68-1.316-5.475-2.154c-1.796-0.837-3.396-1.929-4.801-3.275c-1.407-1.347-2.536-3.03-3.389-5.049
			c-0.852-2.02-1.279-4.51-1.279-7.472c0-2.363,0.471-4.667,1.413-6.911c0.943-2.244,2.319-4.233,4.129-5.969
			c1.809-1.734,4.031-3.125,6.664-4.173c2.632-1.047,5.639-1.571,9.02-1.571c3.829,0,7.359,0.599,10.591,1.795
			c3.231,1.197,5.983,2.872,8.256,5.026L257.363-53.337z"/>
	</g>
	<g class="st2">
		<path class="st3" d="M14.105,11.862v4.009H7.972v17.786H2.916V15.872h-6.133v-4.009H14.105z"/>
		<path class="st3" d="M37.201,11.862v3.89h-8.945v5.086h6.851v3.74h-6.851v5.191h8.945v3.89H23.169V11.862H37.201z"/>
		<path class="st3" d="M61.688,28.018c0.119,0,0.24,0.022,0.358,0.067c0.12,0.045,0.235,0.123,0.345,0.232l2.004,2.109
			c-0.878,1.147-1.977,2.012-3.298,2.595c-1.322,0.583-2.885,0.876-4.689,0.876c-1.656,0-3.14-0.281-4.451-0.845
			c-1.311-0.563-2.423-1.341-3.336-2.333c-0.912-0.992-1.613-2.169-2.102-3.53c-0.488-1.361-0.732-2.84-0.732-4.435
			c0-1.625,0.279-3.119,0.838-4.481s1.339-2.535,2.341-3.522s2.201-1.755,3.597-2.303c1.397-0.549,2.937-0.823,4.622-0.823
			c0.818,0,1.588,0.072,2.312,0.216c0.723,0.145,1.398,0.345,2.026,0.599c0.629,0.254,1.208,0.558,1.735,0.913
			c0.529,0.354,0.997,0.745,1.406,1.174l-1.705,2.289c-0.11,0.139-0.239,0.267-0.389,0.381c-0.15,0.115-0.359,0.172-0.628,0.172
			c-0.18,0-0.35-0.04-0.509-0.12c-0.16-0.08-0.329-0.177-0.508-0.291c-0.179-0.115-0.376-0.24-0.59-0.374
			c-0.215-0.135-0.469-0.26-0.764-0.374c-0.294-0.115-0.638-0.212-1.032-0.292c-0.393-0.08-0.855-0.12-1.383-0.12
			c-0.917,0-1.756,0.163-2.514,0.486c-0.758,0.324-1.409,0.788-1.953,1.392s-0.967,1.334-1.271,2.191
			c-0.305,0.858-0.457,1.82-0.457,2.888c0,1.117,0.152,2.108,0.457,2.976c0.304,0.868,0.718,1.598,1.242,2.191
			c0.524,0.594,1.134,1.045,1.833,1.355c0.697,0.309,1.445,0.464,2.244,0.464c0.458,0,0.876-0.022,1.256-0.067
			c0.379-0.046,0.73-0.123,1.054-0.233c0.324-0.109,0.634-0.251,0.928-0.426c0.294-0.174,0.591-0.391,0.89-0.651
			c0.12-0.1,0.248-0.182,0.389-0.247C61.394,28.051,61.538,28.018,61.688,28.018z"/>
		<path class="st3" d="M92.696,33.657H87.61v-9.215h-8.854v9.215h-5.086V11.862h5.086v9.11h8.854v-9.11h5.086V33.657z"/>
		<path class="st3" d="M106.474,11.892c0.149,0.02,0.284,0.057,0.403,0.112c0.12,0.056,0.235,0.132,0.345,0.232
			c0.109,0.1,0.234,0.235,0.374,0.404l10.35,13.089c-0.039-0.419-0.069-0.825-0.09-1.219c-0.019-0.393-0.029-0.764-0.029-1.114
			V11.862h4.457v21.795h-2.632c-0.39,0-0.719-0.059-0.988-0.179c-0.269-0.12-0.529-0.339-0.777-0.658L107.61,19.835
			c0.03,0.38,0.055,0.751,0.075,1.115c0.019,0.364,0.029,0.705,0.029,1.025v11.682h-4.457V11.862h2.664
			C106.139,11.862,106.324,11.873,106.474,11.892z"/>
		<path class="st3" d="M154.356,22.753c0,1.576-0.272,3.041-0.815,4.397c-0.543,1.357-1.309,2.536-2.296,3.538
			c-0.988,1.002-2.177,1.788-3.568,2.356c-1.391,0.569-2.933,0.853-4.63,0.853c-1.695,0-3.241-0.284-4.637-0.853
			c-1.396-0.568-2.59-1.354-3.583-2.356c-0.991-1.002-1.76-2.181-2.303-3.538c-0.544-1.356-0.815-2.821-0.815-4.397
			c0-1.576,0.271-3.042,0.815-4.398c0.543-1.357,1.312-2.533,2.303-3.53c0.992-0.997,2.187-1.78,3.583-2.349
			c1.396-0.568,2.942-0.852,4.637-0.852c1.696,0,3.239,0.286,4.63,0.86c1.392,0.574,2.581,1.359,3.568,2.356s1.753,2.175,2.296,3.53
			C154.084,19.726,154.356,21.187,154.356,22.753z M149.18,22.753c0-1.077-0.139-2.047-0.419-2.91
			c-0.279-0.863-0.68-1.593-1.204-2.191c-0.524-0.599-1.165-1.057-1.922-1.376c-0.758-0.319-1.621-0.479-2.589-0.479
			c-0.977,0-1.846,0.16-2.61,0.479c-0.763,0.319-1.406,0.777-1.929,1.376c-0.523,0.598-0.925,1.328-1.205,2.191
			c-0.279,0.863-0.419,1.833-0.419,2.91c0,1.087,0.14,2.062,0.419,2.924c0.279,0.863,0.682,1.593,1.205,2.192
			c0.523,0.598,1.167,1.055,1.929,1.368c0.764,0.315,1.633,0.471,2.61,0.471c0.968,0,1.831-0.157,2.589-0.471
			c0.758-0.314,1.398-0.77,1.922-1.368c0.524-0.599,0.925-1.329,1.204-2.192C149.04,24.815,149.18,23.84,149.18,22.753z"/>
		<path class="st3" d="M168.805,29.619h8.077v4.039h-13.134V11.862h5.056V29.619z"/>
		<path class="st3" d="M206.561,22.753c0,1.576-0.272,3.041-0.815,4.397c-0.543,1.357-1.309,2.536-2.296,3.538
			c-0.987,1.002-2.177,1.788-3.568,2.356c-1.391,0.569-2.933,0.853-4.63,0.853c-1.695,0-3.241-0.284-4.637-0.853
			c-1.396-0.568-2.59-1.354-3.583-2.356c-0.991-1.002-1.76-2.181-2.303-3.538c-0.544-1.356-0.815-2.821-0.815-4.397
			c0-1.576,0.271-3.042,0.815-4.398c0.543-1.357,1.312-2.533,2.303-3.53c0.992-0.997,2.187-1.78,3.583-2.349
			c1.396-0.568,2.942-0.852,4.637-0.852c1.696,0,3.239,0.286,4.63,0.86c1.392,0.574,2.581,1.359,3.568,2.356
			c0.988,0.997,1.753,2.175,2.296,3.53C206.289,19.726,206.561,21.187,206.561,22.753z M201.384,22.753
			c0-1.077-0.139-2.047-0.419-2.91c-0.279-0.863-0.68-1.593-1.204-2.191c-0.524-0.599-1.165-1.057-1.922-1.376
			c-0.758-0.319-1.621-0.479-2.589-0.479c-0.977,0-1.846,0.16-2.61,0.479c-0.763,0.319-1.406,0.777-1.929,1.376
			c-0.523,0.598-0.925,1.328-1.205,2.191c-0.279,0.863-0.419,1.833-0.419,2.91c0,1.087,0.14,2.062,0.419,2.924
			c0.28,0.863,0.682,1.593,1.205,2.192c0.523,0.598,1.167,1.055,1.929,1.368c0.764,0.315,1.633,0.471,2.61,0.471
			c0.968,0,1.831-0.157,2.589-0.471c0.758-0.314,1.398-0.77,1.922-1.368c0.524-0.599,0.925-1.329,1.204-2.192
			C201.245,24.815,201.384,23.84,201.384,22.753z"/>
		<path class="st3" d="M226.216,30.007c0.697,0,1.317-0.059,1.854-0.179c0.54-0.12,1.048-0.279,1.526-0.479v-3.305h-2.154
			c-0.318,0-0.568-0.085-0.748-0.254c-0.179-0.169-0.27-0.384-0.27-0.644v-2.782h7.749v9.2c-0.558,0.409-1.139,0.761-1.742,1.054
			c-0.604,0.295-1.247,0.537-1.93,0.726c-0.683,0.19-1.411,0.329-2.183,0.42c-0.773,0.09-1.603,0.134-2.491,0.134
			c-1.595,0-3.072-0.281-4.427-0.845c-1.357-0.563-2.53-1.341-3.523-2.333c-0.991-0.992-1.77-2.169-2.333-3.53
			s-0.845-2.84-0.845-4.435c0-1.625,0.27-3.119,0.808-4.481s1.309-2.535,2.311-3.522s2.214-1.755,3.635-2.303
			c1.42-0.549,3.009-0.823,4.764-0.823c0.908,0,1.76,0.075,2.557,0.224c0.799,0.15,1.533,0.354,2.207,0.614
			c0.673,0.259,1.288,0.569,1.847,0.927c0.558,0.359,1.057,0.748,1.496,1.167l-1.466,2.229c-0.14,0.209-0.308,0.374-0.502,0.494
			s-0.406,0.179-0.636,0.179c-0.299,0-0.608-0.099-0.927-0.299c-0.399-0.24-0.775-0.446-1.13-0.621
			c-0.354-0.174-0.715-0.316-1.085-0.426c-0.368-0.11-0.758-0.19-1.167-0.24c-0.409-0.05-0.867-0.075-1.375-0.075
			c-0.949,0-1.801,0.168-2.558,0.502c-0.759,0.334-1.403,0.805-1.937,1.413c-0.534,0.609-0.945,1.339-1.235,2.191
			c-0.288,0.853-0.433,1.803-0.433,2.851c0,1.157,0.159,2.183,0.478,3.081c0.319,0.897,0.762,1.656,1.324,2.273
			c0.563,0.618,1.231,1.09,2.004,1.414C224.453,29.846,225.299,30.007,226.216,30.007z"/>
		<path class="st3" d="M255.085,25.371v8.287h-5.056v-8.287l-7.898-13.508h4.458c0.438,0,0.787,0.103,1.047,0.307
			c0.259,0.205,0.468,0.466,0.628,0.786l3.081,6.342c0.249,0.509,0.479,0.978,0.688,1.406c0.21,0.429,0.394,0.853,0.554,1.272
			c0.149-0.428,0.329-0.858,0.539-1.286c0.209-0.428,0.434-0.892,0.673-1.392l3.051-6.342c0.06-0.13,0.142-0.259,0.247-0.39
			c0.105-0.13,0.224-0.246,0.358-0.352c0.135-0.104,0.29-0.189,0.465-0.254c0.174-0.064,0.366-0.097,0.576-0.097h4.488
			L255.085,25.371z"/>
	</g>
</g>
</svg>
