<?xml version="1.0" encoding="UTF-8" standalone="no"?>
<svg
   xmlns:dc="http://purl.org/dc/elements/1.1/"
   xmlns:cc="http://creativecommons.org/ns#"
   xmlns:rdf="http://www.w3.org/1999/02/22-rdf-syntax-ns#"
   xmlns:svg="http://www.w3.org/2000/svg"
   xmlns="http://www.w3.org/2000/svg"
   xmlns:sodipodi="http://sodipodi.sourceforge.net/DTD/sodipodi-0.dtd"
   xmlns:inkscape="http://www.inkscape.org/namespaces/inkscape"
   inkscape:version="1.0beta2 (2b71d25, 2019-12-03)"
   sodipodi:docname="S11_erdos_RGB(sponsored)_OL.ai.svg"
   viewBox="0 0 547.61934 315.87665"
   height="315.87665"
   width="547.61932"
   xml:space="preserve"
   id="svg10"
   version="1.1"><metadata
     id="metadata16"><rdf:RDF><cc:Work
         rdf:about=""><dc:format>image/svg+xml</dc:format><dc:type
           rdf:resource="http://purl.org/dc/dcmitype/StillImage" /><dc:title></dc:title></cc:Work></rdf:RDF></metadata><defs
     id="defs14"><clipPath
       id="clipPath78"
       clipPathUnits="userSpaceOnUse"><path
         inkscape:connector-curvature="0"
         id="path76"
         d="M 0,612.283 H 858.898 V 0 H 0 Z" /></clipPath></defs><sodipodi:namedview
     inkscape:current-layer="g18"
     inkscape:window-maximized="0"
     inkscape:window-y="23"
     inkscape:window-x="0"
     inkscape:cy="161.39588"
     inkscape:cx="221.77551"
     inkscape:zoom="0.4879038"
     showgrid="false"
     id="namedview12"
     inkscape:window-height="672"
     inkscape:window-width="1015"
     inkscape:pageshadow="2"
     inkscape:pageopacity="0"
     guidetolerance="10"
     gridtolerance="10"
     objecttolerance="10"
     borderopacity="1"
     inkscape:document-rotation="0"
     bordercolor="#666666"
     pagecolor="#ffffff" /><g
     transform="matrix(1.3333333,0,0,-1.3333333,-298.78893,588.98545)"
     inkscape:label="S11_erdos_RGB(sponsored)_OL"
     inkscape:groupmode="layer"
     id="g18"><g
       transform="translate(229.7168,441.5891)"
       id="g32" /><path
       inkscape:connector-curvature="0"
       id="path52"
       style="fill:#3b1f0b;fill-opacity:1;fill-rule:nonzero;stroke:none"
       d="m 281.45,290.639 h 295.998 v 0.633 H 281.45 Z" /><g
       transform="translate(299.875,384.381)"
       id="g54"><path
         inkscape:connector-curvature="0"
         id="path56"
         style="fill:#3b1f0b;fill-opacity:1;fill-rule:nonzero;stroke:none"
         d="M 0,0 H -5.485 L -5.52,-0.006 -18.425,-0.6 v -6.542 l 8.315,-2.378 v -62.794 l -8.315,-2.379 v -7.136 H 0 Z" /></g><g
       transform="translate(341.6167,323.9606)"
       id="g58"><path
         inkscape:connector-curvature="0"
         id="path60"
         style="fill:#3b1f0b;fill-opacity:1;fill-rule:nonzero;stroke:none"
         d="m 0,0 h -7.731 l -1.481,-12.845 h -28.942 v -8.564 H 0.897 Z" /></g><g
       transform="translate(332.1064,375.8176)"
       id="g62"><path
         inkscape:connector-curvature="0"
         id="path64"
         style="fill:#3b1f0b;fill-opacity:1;fill-rule:nonzero;stroke:none"
         d="M 0,0 2.076,-11.656 H 9.808 L 10.705,8.563 H -28.644 V 0 Z" /></g><path
       inkscape:connector-curvature="0"
       id="path66"
       style="fill:#3b1f0b;fill-opacity:1;fill-rule:nonzero;stroke:none"
       d="m 329.014,348.224 h -25.551 v -8.563 h 25.551 z" /><g
       transform="translate(372.9136,358.0959)"
       id="g68"><path
         inkscape:connector-curvature="0"
         id="path70"
         style="fill:#3b1f0b;fill-opacity:1;fill-rule:nonzero;stroke:none"
         d="m 0,0 -17.831,-0.595 v -6.541 l 7.959,-2.277 v -36.743 l -7.959,-2.846 v -6.542 h 27.93 v 6.542 L 0,-46.029 Z" /></g><g
       id="g72"><g
         clip-path="url(#clipPath78)"
         id="g74"><g
           transform="translate(389.8027,358.9284)"
           id="g80"><path
             inkscape:connector-curvature="0"
             id="path82"
             style="fill:#3b1f0b;fill-opacity:1;fill-rule:nonzero;stroke:none"
             d="m 0,0 c -6.286,0 -10.51,-2.574 -13.301,-5.58 v -10.66 c 2.505,3.704 6.588,7.2 13.063,7.2 2.973,0 3.668,-0.408 4.857,-0.765 l 1.446,9.21 C 4.758,-0.357 2.617,0 0,0" /></g><g
           transform="translate(439.7939,312.7629)"
           id="g84"><path
             inkscape:connector-curvature="0"
             id="path86"
             style="fill:#3b1f0b;fill-opacity:1;fill-rule:nonzero;stroke:none"
             d="m 0,0 c -3.065,-2.252 -6.877,-3.615 -10.689,-3.615 -9.872,0 -18.198,7.439 -18.198,21.236 0,13.915 9.278,21.116 18.079,21.116 4.21,0 7.422,-1.098 9.848,-2.537 0.884,-0.524 1.679,-1.156 2.383,-1.868 v 8.134 c -2.772,1.848 -7.34,3.7 -14.491,3.7 -13.915,0 -25.572,-10.11 -25.572,-28.545 0,-19.031 10.943,-28.664 25.453,-28.664 6.86,0 11.601,2.353 14.61,4.658 v 7.62 C 0.983,0.792 0.512,0.375 0,0" /></g><g
           transform="translate(454.6973,312.0134)"
           id="g88"><path
             inkscape:connector-curvature="0"
             id="path90"
             style="fill:#3b1f0b;fill-opacity:1;fill-rule:nonzero;stroke:none"
             d="m 0,0 -0.021,72.363 -18.725,-0.595 v -6.542 l 8.853,-2.434 V -9.461 l 18.426,0.594 v 6.542 z" /></g><g
           transform="translate(542.5342,321.9391)"
           id="g92"><path
             inkscape:connector-curvature="0"
             id="path94"
             style="fill:#3b1f0b;fill-opacity:1;fill-rule:nonzero;stroke:none"
             d="m 0,0 h -8.325 l -0.898,-17.603 c 0,0 3.933,-1.065 9.621,-1.837 v 9.535 z" /></g><g
           transform="translate(557.1094,334.0705)"
           id="g96"><path
             inkscape:connector-curvature="0"
             id="path98"
             style="fill:#3b1f0b;fill-opacity:1;fill-rule:nonzero;stroke:none"
             d="m 0,0 c -8.088,1.546 -15.818,2.617 -15.818,8.92 0,5.59 6.184,7.969 12.369,7.969 4.989,0 8.149,-0.906 10.016,-2.61 L 7.548,5.233 h 7.73 l 1.254,16.057 c 0,0 -5.015,1.634 -11.171,2.69 -2.314,0.5 -4.97,0.796 -7.988,0.858 -0.394,0.012 -0.789,0.02 -1.179,0.02 -12.965,0 -21.765,-6.304 -21.765,-15.7 0,-12.25 11.299,-14.867 21.171,-16.651 7.849,-1.427 14.985,-3.212 14.985,-8.564 0,-5.114 -4.162,-8.207 -14.034,-8.207 -2.656,0 -5.053,0.313 -7.14,0.873 v -8.594 c 2.317,-0.221 4.811,-0.366 7.377,-0.366 16.89,0 23.55,7.136 23.55,16.057 C 20.338,-5.233 10.467,-2.022 0,0" /></g><g
           transform="translate(513.9854,330.3835)"
           id="g100"><path
             inkscape:connector-curvature="0"
             id="path102"
             style="fill:#3b1f0b;fill-opacity:1;fill-rule:nonzero;stroke:none"
             d="m 0,0 c 0,13.916 -9.396,21.116 -18.078,21.116 -8.802,0 -18.198,-7.2 -18.198,-21.116 0,-13.916 8.564,-21.235 18.198,-21.235 C -8.563,-21.235 0,-13.916 0,0 m -18.078,-28.664 c -16.413,0 -27.951,10.109 -27.951,28.664 0,18.554 12.132,28.545 27.951,28.545 15.699,0 27.831,-9.991 27.831,-28.545 0,-18.555 -11.418,-28.664 -27.831,-28.664" /></g><g
           transform="translate(488.0547,364.5148)"
           id="g104"><path
             inkscape:connector-curvature="0"
             id="path106"
             style="fill:#3b1f0b;fill-opacity:1;fill-rule:nonzero;stroke:none"
             d="m 0,0 h -5.299 c -1.243,0 -2.109,1.235 -1.686,2.404 l 6.315,17.457 h 7.784 c 1.337,0 2.204,-1.409 1.602,-2.603 z" /></g><g
           transform="translate(504.3564,364.5148)"
           id="g108"><path
             inkscape:connector-curvature="0"
             id="path110"
             style="fill:#3b1f0b;fill-opacity:1;fill-rule:nonzero;stroke:none"
             d="m 0,0 h -5.299 c -1.243,0 -2.11,1.235 -1.686,2.404 l 6.315,17.457 h 7.784 c 1.337,0 2.204,-1.409 1.602,-2.603 z" /></g><g
           transform="translate(466.9795,274.3264)"
           id="g112"><path
             inkscape:connector-curvature="0"
             id="path114"
             style="fill:#3b1f0b;fill-opacity:1;fill-rule:nonzero;stroke:none"
             d="m 0,0 c -2.125,0 -3.141,-1.387 -3.583,-2.321 v 2.144 L -7.746,-0.303 V -1.69 l 2.069,-0.487 v -7.786 l -2.069,-0.608 v -1.388 h 6.686 v 1.388 l -2.523,0.63 v 4.693 c 0.051,0.303 0.757,3.331 3.532,3.331 0.631,0 0.779,-0.087 1.03,-0.163 l 0.307,1.954 C 1.009,-0.075 0.555,0 0,0" /></g><g
           transform="translate(456.0195,268.2707)"
           id="g116"><path
             inkscape:connector-curvature="0"
             id="path118"
             style="fill:#3b1f0b;fill-opacity:1;fill-rule:nonzero;stroke:none"
             d="m 0,0 c 0,2.952 -1.993,4.48 -3.835,4.48 -1.867,0 -3.86,-1.528 -3.86,-4.48 0,-2.952 1.816,-4.505 3.86,-4.505 C -1.816,-4.505 0,-2.952 0,0 m -3.835,-6.08 c -3.481,0 -5.93,2.144 -5.93,6.08 0,3.937 2.575,6.056 5.93,6.056 3.331,0 5.904,-2.119 5.904,-6.056 0,-3.936 -2.423,-6.08 -5.904,-6.08" /></g><g
           transform="translate(443.0547,281.4172)"
           id="g120"><path
             inkscape:connector-curvature="0"
             id="path122"
             style="fill:#3b1f0b;fill-opacity:1;fill-rule:nonzero;stroke:none"
             d="m 0,0 c -2.573,0 -4.062,-1.464 -4.062,-4.34 v -2.927 l -1.999,-0.222 v -1.444 h 1.999 v -8.099 l -2.145,-0.63 v -1.388 h 6.763 v 1.388 l -2.524,0.63 v 8.099 h 3.76 v 1.666 h -3.76 v 2.902 c 0,1.741 0.833,2.573 2.296,2.573 0.541,0 0.974,-0.09 1.276,-0.182 l 0.037,-0.045 0.187,-2.018 h 1.767 l 0.19,3.153 C 3.785,-0.884 2.397,0 0,0" /></g><g
           transform="translate(288.6152,264.1838)"
           id="g124"><path
             inkscape:connector-curvature="0"
             id="path126"
             style="fill:#3b1f0b;fill-opacity:1;fill-rule:nonzero;stroke:none"
             d="m 0,0 h -2.876 v 13.726 h 2.548 c 4.996,0 6.964,-2.498 6.964,-6.914 C 6.636,2.372 4.693,0 0,0 m 0,15.542 h -2.372 l -0.021,-0.031 h -0.021 l 0.042,0.031 -4.794,-0.126 v -1.388 l 2.145,-0.504 V 0.202 l -2.145,-0.505 v -1.513 h 0.495 7.025 c 5.146,0 8.502,2.547 8.502,8.628 0,6.056 -3.38,8.73 -8.856,8.73" /></g><g
           transform="translate(307.7207,265.7482)"
           id="g128"><path
             inkscape:connector-curvature="0"
             id="path130"
             style="fill:#3b1f0b;fill-opacity:1;fill-rule:nonzero;stroke:none"
             d="m 0,0 c 0,0 -1.161,-1.918 -3.709,-1.918 -1.463,0 -2.498,0.682 -2.498,1.792 0,1.312 1.514,1.917 3.532,1.917 H 0 Z m 2.094,-1.363 v 5.425 c 0,3.062 -1.966,4.478 -5.097,4.515 l 0.001,10e-4 c -0.021,0 -0.8,-0.026 -1.095,-0.073 C -5.985,8.273 -7.923,7.569 -7.923,7.569 l 0.317,-3.103 h 1.64 l 0.15,1.911 c 0.654,0.308 1.754,0.485 2.611,0.485 C -1.11,6.862 0,6.056 0,4.163 V 3.255 h -2.851 c -3.356,0 -5.425,-1.136 -5.425,-3.381 0,-1.969 1.64,-3.432 4.062,-3.432 3.457,0 4.441,2.12 4.441,2.12 h 0.05 l 0.253,-1.943 3.624,0.126 v 1.388 z" /></g><g
           transform="translate(331.0405,265.7482)"
           id="g132"><path
             inkscape:connector-curvature="0"
             id="path134"
             style="fill:#3b1f0b;fill-opacity:1;fill-rule:nonzero;stroke:none"
             d="m 0,0 c 0,0 -1.161,-1.918 -3.709,-1.918 -1.464,0 -2.498,0.682 -2.498,1.792 0,1.312 1.514,1.917 3.532,1.917 H 0 Z m 2.094,-1.363 v 5.425 c 0,3.062 -1.966,4.478 -5.097,4.515 v 10e-4 c -0.02,0 -0.799,-0.026 -1.094,-0.073 C -5.985,8.273 -7.923,7.569 -7.923,7.569 l 0.317,-3.103 h 1.64 l 0.149,1.911 c 0.655,0.308 1.755,0.485 2.612,0.485 C -1.11,6.862 0,6.056 0,4.163 V 3.255 h -2.852 c -3.355,0 -5.424,-1.136 -5.424,-3.381 0,-1.969 1.64,-3.432 4.062,-3.432 3.457,0 4.441,2.12 4.441,2.12 h 0.05 l 0.253,-1.943 3.624,0.126 v 1.388 z" /></g><g
           transform="translate(320.7104,264.7892)"
           id="g136"><path
             inkscape:connector-curvature="0"
             id="path138"
             style="fill:#3b1f0b;fill-opacity:1;fill-rule:nonzero;stroke:none"
             d="m 0,0 c -0.656,-0.354 -1.893,-0.808 -2.498,-0.808 -1.236,0 -1.943,0.808 -1.943,2.422 v 6.081 h 3.734 V 9.361 H -4.441 V 12.74 L -6.547,12.319 V 9.361 l 0.012,10e-4 V 9.361 L -8.755,9.139 V 7.695 h 2.22 V 1.488 c 0,-2.724 1.312,-4.087 3.683,-4.087 1.262,0 2.398,0.429 3.533,1.262 z" /></g><g
           transform="translate(513.4062,269.0529)"
           id="g140"><path
             inkscape:connector-curvature="0"
             id="path142"
             style="fill:#3b1f0b;fill-opacity:1;fill-rule:nonzero;stroke:none"
             d="m 0,0 c -1.716,0.328 -3.355,0.556 -3.355,1.893 0,1.186 1.311,1.69 2.624,1.69 1.058,0 1.728,-0.191 2.125,-0.554 L 1.602,1.11 h 1.639 l 0.266,3.407 c 0,0 -1.064,0.346 -2.369,0.571 -0.492,0.105 -1.863,0.185 -1.946,0.185 -2.75,0 -4.617,-1.336 -4.617,-3.33 0,-2.598 2.398,-3.154 4.491,-3.532 1.665,-0.303 3.179,-0.682 3.179,-1.817 0,-1.085 -0.883,-1.74 -2.976,-1.74 -0.922,0 -1.699,0.174 -2.277,0.471 l -0.084,2.102 h -1.766 l -0.191,-3.735 c 0,0 2.046,-0.554 4.367,-0.554 3.583,0 4.996,1.513 4.996,3.406 C 4.314,-1.109 2.221,-0.429 0,0" /></g><g
           transform="translate(573.1328,269.0529)"
           id="g144"><path
             inkscape:connector-curvature="0"
             id="path146"
             style="fill:#3b1f0b;fill-opacity:1;fill-rule:nonzero;stroke:none"
             d="m 0,0 c -1.716,0.328 -3.356,0.556 -3.356,1.893 0,1.186 1.312,1.69 2.624,1.69 1.058,0 1.729,-0.191 2.125,-0.554 L 1.601,1.11 h 1.64 l 0.266,3.407 c 0,0 -1.065,0.346 -2.37,0.571 -0.491,0.105 -1.862,0.185 -1.945,0.185 -2.751,0 -4.617,-1.336 -4.617,-3.33 0,-2.598 2.397,-3.154 4.491,-3.532 1.665,-0.303 3.179,-0.682 3.179,-1.817 0,-1.085 -0.883,-1.74 -2.977,-1.74 -0.921,0 -1.698,0.174 -2.276,0.471 l -0.085,2.102 h -1.765 l -0.191,-3.735 c 0,0 2.046,-0.554 4.367,-0.554 3.583,0 4.996,1.513 4.996,3.406 C 4.314,-1.109 2.22,-0.429 0,0" /></g><g
           transform="translate(561.833,269.0529)"
           id="g148"><path
             inkscape:connector-curvature="0"
             id="path150"
             style="fill:#3b1f0b;fill-opacity:1;fill-rule:nonzero;stroke:none"
             d="m 0,0 c -1.716,0.328 -3.356,0.556 -3.356,1.893 0,1.186 1.312,1.69 2.624,1.69 1.058,0 1.729,-0.191 2.125,-0.554 L 1.601,1.11 h 1.64 l 0.266,3.407 c 0,0 -1.065,0.346 -2.37,0.571 -0.491,0.105 -1.862,0.185 -1.945,0.185 -2.75,0 -4.617,-1.336 -4.617,-3.33 0,-2.598 2.397,-3.154 4.491,-3.532 1.665,-0.303 3.179,-0.682 3.179,-1.817 0,-1.085 -0.883,-1.74 -2.977,-1.74 -0.921,0 -1.698,0.174 -2.276,0.471 l -0.084,2.102 h -1.766 l -0.191,-3.735 c 0,0 2.046,-0.554 4.367,-0.554 3.583,0 4.996,1.513 4.996,3.406 C 4.314,-1.109 2.22,-0.429 0,0" /></g><g
           transform="translate(524.1826,264.3849)"
           id="g152"><path
             inkscape:connector-curvature="0"
             id="path154"
             style="fill:#3b1f0b;fill-opacity:1;fill-rule:nonzero;stroke:none"
             d="M 0,0 V 9.766 L -4.239,9.639 V 8.251 L -2.095,7.747 V 0 l -2.144,-0.63 v -1.388 h 6.131 v 1.388 z" /></g><path
           inkscape:connector-curvature="0"
           id="path156"
           style="fill:#3b1f0b;fill-opacity:1;fill-rule:nonzero;stroke:none"
           d="m 524.183,279.853 h -2.095 v -2.095 h 2.095 z" /><g
           transform="translate(540.4736,264.3849)"
           id="g158"><path
             inkscape:connector-curvature="0"
             id="path160"
             style="fill:#3b1f0b;fill-opacity:1;fill-rule:nonzero;stroke:none"
             d="m 0,0 v 5.35 c 0,2.649 -1.388,4.591 -4.441,4.591 -2.438,0 -3.482,-1.19 -3.886,-1.893 V 9.766 L -12.49,9.639 V 8.251 l 2.069,-0.486 V 0 l -2.144,-0.63 v -1.388 h 5.878 V -0.63 L -8.327,0 v 5.703 c 0,0 0.53,2.473 3.306,2.473 2.144,0 2.926,-1.313 2.926,-3.155 v -7.039 h 3.988 v 1.388 z" /></g><g
           transform="translate(484.4414,264.1838)"
           id="g162"><path
             inkscape:connector-curvature="0"
             id="path164"
             style="fill:#3b1f0b;fill-opacity:1;fill-rule:nonzero;stroke:none"
             d="M 0,0 H -3.936 V 6.182 H 0.025 C 2.599,6.182 4.239,5.097 4.239,3.153 4.239,1.009 2.775,0 0,0 m -0.303,13.726 c 1.59,0 3.407,-0.58 3.407,-2.927 C 3.104,8.906 1.489,7.923 0,7.923 h -3.936 v 5.803 z M 2.649,7.19 v 0.102 c 0.757,0.303 2.675,1.034 2.675,3.759 0,2.801 -1.892,4.491 -5.955,4.491 h -2.927 l -4.668,-0.126 v -1.388 l 2.145,-0.504 V 0.201 l -2.145,-0.504 v -1.513 h 8.151 c 4.515,0 6.534,1.867 6.534,4.869 0,3.305 -2.801,3.986 -3.81,4.137" /></g><g
           transform="translate(504.208,264.3849)"
           id="g166"><path
             inkscape:connector-curvature="0"
             id="path168"
             style="fill:#3b1f0b;fill-opacity:1;fill-rule:nonzero;stroke:none"
             d="M 0,0 V 9.766 L -4.163,9.639 V 8.251 L -2.094,7.765 V 2.069 c 0,0 -0.53,-2.498 -3.305,-2.498 -2.17,0 -2.927,1.313 -2.927,3.155 v 7.04 L -12.489,9.639 V 8.251 L -10.42,7.765 V 2.397 c 0,-2.649 1.388,-4.591 4.441,-4.591 3.457,0 4.112,2.522 4.112,2.522 h 0.051 l 0.225,-2.333 3.737,0.113 v 1.388 z" /></g><g
           transform="translate(549.1289,272.5607)"
           id="g170"><path
             inkscape:connector-curvature="0"
             id="path172"
             style="fill:#3b1f0b;fill-opacity:1;fill-rule:nonzero;stroke:none"
             d="m 0,0 c 1.514,0 3.153,-0.984 3.229,-3.381 h -7.14 C -3.709,-1.161 -2.019,0 0,0 m 0.252,-8.604 c -2.095,0 -3.886,1.135 -4.138,3.684 h 8.932 c 0,0 0.126,0.504 0.126,1.261 0,2.927 -2.044,5.425 -5.197,5.425 -3.432,0 -5.955,-2.12 -5.955,-6.056 0,-3.936 2.523,-6.08 6.005,-6.08 2.776,0 5.046,2.018 5.046,2.018 l -1.009,1.293 c 0,0 -1.413,-1.545 -3.81,-1.545" /></g><g
           transform="translate(345.3647,275.2853)"
           id="g174"><path
             inkscape:connector-curvature="0"
             id="path176"
             style="fill:#3b1f0b;fill-opacity:1;fill-rule:nonzero;stroke:none"
             d="m 0,0 c 0,1.59 1.463,2.675 3.785,2.675 1.338,0 2.83,-0.423 2.934,-0.452 C 6.722,2.222 6.724,2.22 6.726,2.219 l 0.667,-2.698 h 1.64 L 9.35,3.583 c 0,0 -2.875,0.908 -5.217,1.001 -0.013,0.001 -0.264,0.009 -0.374,0.009 -3.986,0 -5.98,-2.246 -5.98,-4.644 0,-6.282 10.194,-3.91 10.194,-8.503 0,-1.674 -1.288,-2.605 -4.033,-2.623 -1.623,0.018 -3.465,0.63 -3.465,0.63 l -0.314,2.65 h -2.019 l -0.19,-4.189 c 0,0 1.852,-0.564 3.895,-0.85 0.516,-0.086 1.284,-0.159 2.064,-0.159 4.415,0 6.282,2.145 6.282,4.718 C 10.193,-1.993 0,-4.314 0,0" /></g><g
           transform="translate(374.3042,264.3849)"
           id="g178"><path
             inkscape:connector-curvature="0"
             id="path180"
             style="fill:#3b1f0b;fill-opacity:1;fill-rule:nonzero;stroke:none"
             d="M 0,0 V 9.766 L -4.239,9.639 V 8.251 L -2.094,7.747 V 0 l -2.145,-0.63 v -1.388 h 6.132 v 1.388 z" /></g><path
           inkscape:connector-curvature="0"
           id="path182"
           style="fill:#3b1f0b;fill-opacity:1;fill-rule:nonzero;stroke:none"
           d="m 374.304,279.853 h -2.094 v -2.095 h 2.094 z" /><g
           transform="translate(383.6523,272.5607)"
           id="g184"><path
             inkscape:connector-curvature="0"
             id="path186"
             style="fill:#3b1f0b;fill-opacity:1;fill-rule:nonzero;stroke:none"
             d="m 0,0 c 1.514,0 3.154,-0.984 3.229,-3.381 h -7.14 C -3.709,-1.161 -2.019,0 0,0 m 0.252,-8.604 c -2.094,0 -3.885,1.135 -4.138,3.684 h 8.932 c 0,0 0.126,0.504 0.126,1.261 0,2.927 -2.043,5.425 -5.197,5.425 -3.432,0 -5.955,-2.12 -5.955,-6.056 0,-3.936 2.523,-6.08 6.005,-6.08 2.776,0 5.047,2.018 5.047,2.018 l -1.009,1.293 c 0,0 -1.414,-1.545 -3.811,-1.545" /></g><g
           transform="translate(402.6372,264.3849)"
           id="g188"><path
             inkscape:connector-curvature="0"
             id="path190"
             style="fill:#3b1f0b;fill-opacity:1;fill-rule:nonzero;stroke:none"
             d="m 0,0 v 5.35 c 0,2.649 -1.388,4.591 -4.441,4.591 -2.437,0 -3.481,-1.19 -3.886,-1.893 V 9.766 L -12.49,9.639 V 8.251 l 2.069,-0.486 V 0 l -2.144,-0.63 v -1.388 h 5.878 V -0.63 L -8.327,0 v 5.703 c 0,0 0.53,2.473 3.306,2.473 2.145,0 2.927,-1.313 2.927,-3.155 v -7.039 h 3.987 v 1.388 z" /></g><g
           transform="translate(367.1245,265.5021)"
           id="g192"><path
             inkscape:connector-curvature="0"
             id="path194"
             style="fill:#3b1f0b;fill-opacity:1;fill-rule:nonzero;stroke:none"
             d="m 0,0 c 0,0 -1.489,-1.546 -3.886,-1.546 -2.196,0 -4.113,1.362 -4.113,4.315 0,3.179 1.514,4.29 3.81,4.29 2.195,0 3.154,-1.035 3.154,-2.726 V 3.955 h 1.892 v 0.656 c 0,2.17 -1.312,4.213 -5.021,4.213 -3.633,0 -5.904,-1.968 -5.904,-6.055 0,-3.936 2.473,-6.081 6.03,-6.081 2.776,0 5.047,2.019 5.047,2.019 z" /></g><g
           transform="translate(423.7256,272.5607)"
           id="g196"><path
             inkscape:connector-curvature="0"
             id="path198"
             style="fill:#3b1f0b;fill-opacity:1;fill-rule:nonzero;stroke:none"
             d="m 0,0 c 1.514,0 3.154,-0.984 3.229,-3.381 h -7.14 C -3.709,-1.161 -2.019,0 0,0 m 0.252,-8.604 c -2.094,0 -3.885,1.135 -4.138,3.684 h 8.932 c 0,0 0.126,0.504 0.126,1.261 0,2.927 -2.044,5.425 -5.197,5.425 -3.432,0 -5.955,-2.12 -5.955,-6.056 0,-3.936 2.523,-6.08 6.005,-6.08 2.776,0 5.047,2.018 5.047,2.018 l -1.009,1.293 c 0,0 -1.414,-1.545 -3.811,-1.545" /></g><g
           transform="translate(415.3525,265.5021)"
           id="g200"><path
             inkscape:connector-curvature="0"
             id="path202"
             style="fill:#3b1f0b;fill-opacity:1;fill-rule:nonzero;stroke:none"
             d="m 0,0 c 0,0 -1.489,-1.546 -3.886,-1.546 -2.196,0 -4.113,1.362 -4.113,4.315 0,3.179 1.514,4.29 3.81,4.29 2.195,0 3.154,-1.035 3.154,-2.726 V 3.955 h 1.892 v 0.656 c 0,2.17 -1.312,4.213 -5.021,4.213 -3.633,0 -5.904,-1.968 -5.904,-6.055 0,-3.936 2.473,-6.081 6.03,-6.081 2.776,0 5.046,2.019 5.046,2.019 z" /></g></g></g></g></svg>
