<svg xmlns="http://www.w3.org/2000/svg" viewBox="0 0 4393.6 851.82"><defs><style>.cls-1{fill:#ff8500;}.cls-2{fill:#ffa008;}.cls-3{fill:#ff4e00;}</style></defs><g id="レイヤー_2" data-name="レイヤー 2"><g id="レイヤー_1-2" data-name="レイヤー 1"><path class="cls-1" d="M809.05,282.74c-53,55.55-128.15,113.25-220,116-134.64,4.05-197.12-113.1-323-109.24-64.6,2-155.06,36.07-261.44,185.27,5.36,33.94,15.58,69.36,31.48,106.1,73.1-63.32,134.19-77.54,177.15-78.44C382.08,498.93,464,697.23,642.62,694.64c60.94-.88,111.46-24.83,146.62-47.17C864.5,537.23,864.31,408.27,809.05,282.74Z"/><path class="cls-2" d="M266,289.52c125.91-3.86,188.39,113.29,323,109.24,91.85-2.77,167-60.47,220-116A586.74,586.74,0,0,0,780,225.59C625.2-42.51,418.51-42.33,216.14,74.51,92.92,145.65-24.92,287.78,4.58,474.79,111,325.59,201.42,291.49,266,289.52Z"/><path class="cls-3" d="M213.21,502.45c-43,.9-104,15.12-177.15,78.44a561.24,561.24,0,0,0,29,57.46c129,223.41,362.47,267.34,563.84,151.08,71.92-41.52,124.62-89.64,160.34-142-35.16,22.34-85.68,46.29-146.62,47.17C464,697.23,382.08,498.93,213.21,502.45Z"/><polygon points="2217.91 195.22 2118.93 195.22 2118.93 294.2 2068.9 294.2 2068.9 393.17 2118.93 393.17 2118.93 690.12 2217.91 690.12 2217.91 393.17 2267.94 393.17 2267.94 294.2 2217.91 294.2 2217.91 195.22"/><polygon points="2486.12 195.22 2387.14 195.22 2387.14 294.2 2337.11 294.2 2337.11 393.17 2387.14 393.17 2387.14 690.12 2486.12 690.12 2486.12 393.17 2536.15 393.17 2536.15 294.2 2486.12 294.2 2486.12 195.22"/><path d="M1798,290.89c-111.1,0-201.16,90.06-201.16,201.16S1686.88,693.2,1798,693.2s201.16-90.06,201.16-201.15S1909.07,290.89,1798,290.89Zm0,306.64a105.49,105.49,0,1,1,105.48-105.48A105.49,105.49,0,0,1,1798,597.53Z"/><path d="M2811.44,290.89c-111.1,0-201.16,90.06-201.16,201.16s90.06,201.15,201.16,201.15,201.15-90.06,201.15-201.15S2922.53,290.89,2811.44,290.89Zm0,306.64a105.49,105.49,0,1,1,105.48-105.48A105.49,105.49,0,0,1,2811.44,597.53Z"/><rect x="3123.07" y="162.44" width="98.98" height="527.69"/><rect x="3349.53" y="309.74" width="98.98" height="380.38"/><rect x="3349.53" y="161.98" width="98.98" height="99.23"/><path d="M1376.2,314.35a144.29,144.29,0,0,0-102.51,42.57V162.23h-99V690.12h99V476.48h0a74.17,74.17,0,0,1,148.34,0V690.11h99V459.16A144.81,144.81,0,0,0,1376.2,314.35Z"/><path d="M3776.43,314.46A144.29,144.29,0,0,0,3673.92,357V327.3h-99V690.23h99V476.59h0a74.17,74.17,0,1,1,148.34,0V690.22h99v-231A144.82,144.82,0,0,0,3776.43,314.46Z"/><polygon points="4393.6 326.94 4279.17 326.94 4147.2 458.91 4147.2 161.98 4048.22 161.98 4048.22 689.87 4147.2 689.87 4147.2 557.89 4173.81 532.94 4279.17 689.87 4393.6 689.87 4229.53 480.72 4393.6 326.94"/></g></g></svg>